<svg xmlns="http://www.w3.org/2000/svg" width="179.5" height="30" overflow="visible" viewBox="0 0 179.5 30">
  <path fill="#F6F4F4" d="M0 19.2l9.6-4.8L0 9.6z"/>
  <path fill="#E32B26" d="M0 19.2v9.6l19.2-9.6-9.6-4.8z"/>
  <path d="M0 28.8h28.8V24l-9.6-4.8z" class="st2"/>
  <path fill="#21A4DD" d="M0 0v9.6l9.6 4.8 9.6-4.8z"/>
  <path d="M0 0l19.2 9.6 9.6-4.8V0z" class="st2"/>
  <path fill="#AAC9E7" d="M19.2 9.6l-9.6 4.8 9.6 4.8 9.6 4.8V4.8z"/>
  <path d="M166.8 17.4c-.8 0-1.7.1-2.5.2-1.5.3-2.3 1-2.3 2.3 0 1.2.8 1.8 1.9 1.8 1.6 0 2.9-1.1 2.9-3.1v-1.2zm-4 6.9c-2.8 0-4.5-1.7-4.5-4.4 0-2.4 1.6-3.9 4.1-4.5 1.5-.3 2.9-.4 4.4-.4 0-2.1-.9-2.8-3-2.8-1.4.1-2.7.4-4 1v-2.9c1.4-.6 2.9-.9 4.5-.9 4.5 0 6.1 2 6.1 5.9V21h1.8v3h-5l-.3-1.5h-.1c-1 1.2-2.5 1.8-4 1.8m-45-6.9c-.8 0-1.7.1-2.5.2-1.5.3-2.3 1-2.3 2.3 0 1.2.8 1.8 1.9 1.8 1.6 0 2.9-1.1 2.9-3.1v-1.2zm-3.9 6.9c-2.8 0-4.5-1.7-4.5-4.4 0-2.4 1.6-3.9 4.1-4.5 1.5-.3 2.9-.4 4.4-.4 0-2.1-.9-2.8-3-2.8-1.4.1-2.7.4-4 1v-2.9c1.4-.6 2.9-.9 4.4-.9 4.5 0 6.1 2 6.1 5.9V21h1.8v3h-5l-.3-1.5h-.1c-.9 1.2-2.4 1.8-3.9 1.8m-51.4-6.9c-.8 0-1.7.1-2.5.2-1.5.3-2.3 1-2.3 2.3 0 1.2.8 1.8 1.9 1.8 1.6 0 2.9-1.1 2.9-3.1v-1.2zm-4 6.9c-2.8 0-4.5-1.7-4.5-4.4 0-2.4 1.6-3.9 4.1-4.5 1.5-.3 2.9-.4 4.4-.4 0-2.1-.9-2.8-3-2.8-1.4.1-2.7.4-3.9 1v-2.9c1.4-.6 2.9-.9 4.4-.9 4.5 0 6.1 2 6.1 5.9V21h1.8v3h-5l-.3-1.5h-.1c-.9 1.2-2.4 1.8-4 1.8m77-7.4c0-2.6-1.3-4.4-3.3-4.4s-3.3 1.8-3.3 4.4 1.3 4.4 3.2 4.4c2.1 0 3.4-1.8 3.4-4.4m3.8 0c0 4.4-2.5 7.4-6.1 7.4-2.2 0-3.5-.9-4.1-1.8h-.1v5.9l-3.7 1.5V12.7h-1.9V9.9h5.2l.3 1.9h.1c.5-.8 1.6-2.1 4.1-2.1 3.8-.1 6.2 2.8 6.2 7.2M86.1 9.6c-1.8-.1-3.5.7-4.6 2.1h-.1l-.3-1.9h-5.4v2.9h2V24h3.7v-6.5c0-3.5 1.9-4.8 3.5-4.8 1.5 0 2.2 1 2.2 3.1V24h3.7v-9c.1-3.6-1.6-5.4-4.7-5.4m16.7 11.3c-3.8 0-6-2.5-6-6.6 0-4 2.2-6.6 5.6-6.6.9 0 1.7.1 2.5.3v4l3.3-1.4V6c-1.7-1-3.6-1.5-5.5-1.4-5.8 0-9.7 3.6-9.7 9.9 0 6 3.5 9.9 9.7 9.9 2 0 3.9-.5 5.6-1.4l-.8-3.1c-1.5.7-3.1 1-4.7 1m74.9.2V3.7L174 5.2V24h5.5v-2.9h-1.8zM49.1 18.3c0-1.8-1.4-2.8-3.6-2.8H42v5.7h3.6c2.4-.1 3.5-1.3 3.5-2.9M42 12.6h3c2.1 0 3.1-1 3.1-2.4 0-1.7-1-2.5-2.9-2.5H42v4.9zm11 5.9c0 3.7-2.9 5.5-7.2 5.5h-7.5V7.7h-2.4V4.9h9.2c2.5 0 3.8.4 4.7 1 1.3.8 2.1 2.3 2 3.8 0 2-1.3 3.6-3.3 4.1v.1c2.8.3 4.4 2.1 4.5 4.6m87.3-5.8h2V24h3.7V9.9h-5.7v2.8zm2-5.3h3.7V4h-3.7v3.4zm-74.1 5.3h2V24h3.7V9.9h-5.7v2.8zm2-5.3h3.7V4h-3.7v3.4zm83.4 2.5h3.7v2.9h-3.7V19c0 1.6.4 2.5 1.9 2.5.6-.1 1.1-.1 1.7-.3V24c-1 .3-1.9.4-2.9.4-2.9 0-4.3-1.4-4.3-4.4v-7.2h-2V9.9h2V7.5l3.7-1.5-.1 3.9z" class="st2"/>
</svg>