<svg xmlns="http://www.w3.org/2000/svg" width="161.2" height="30" overflow="visible" viewBox="0 0 161.2 30">
  <g id="b9g3O9_2_">
    <path fill="#1D1C31" d="M.3 12.2c.4-1.1.8-1.9 1.1-2.7.3-1.1 1-2.1 1.7-2.9 1.8-2 3.6-4 6.3-5 1.5-.6 3-1.3 4.7-1.2.4 0 .9-.2 1.4-.3.9-.2 1.7.4 2.5.3.9-.1 1.7.1 2.5.4.8.2 1.5.6 2.3 1 .8.3 1.6.6 2.2 1.1.9.8 2.2 1.2 2.6 2.5 0 .1.1.2.2.2 1.5 1.1 2.2 2.9 3 4.4.3.5.1 1.1.4 1.5.4.6.2 1.3.6 2 .3.5.1 1.3.1 2V17c.1 2.7-.8 5.1-2.1 7.3-.7 1.3-1.6 2.6-2.8 3.5-.9.7-1.9 1.4-2.9 2.2-.2-.4-.4-.7-.6-1l-.3-1.2c-.1-.3-.2-.7-.4-1.1l2.4-2.4c1.1-1 1.9-2.9 2.7-5.1.2-.7.4-1.4.3-2-.1-.6.5-1 .3-1.5-.4-1.3-.5-2.7-1-4.1-.8-2.1-2.3-3.6-3.8-5.1-.5-.5-1.2-.8-1.8-1.2-.6-.3-1.2-.6-1.8-.8-1.2-.3-2.5-.7-3.7-.6-1.9 0-3.9.4-5.7 1.3-2.2.8-3.7 2.3-5 4.1-1 1.4-1.6 3-1.9 4.7-.3 1.5-.3 3 0 4.5.3 1.4.8 2.9 1.7 4.1.9 1.2 2 2.3 3.1 3.4.1.1.3.1.6.2.1 1.3-.6 2.4-.7 3.8-.8-.4-1.5-.6-1.9-1.1-1.3-1.3-2.7-2.4-3.7-4-1.1-1.8-2-3.6-2.4-5.7-.6-1.7-.5-3.5-.5-5.3.1-.6.4-1.3.3-1.7z"/>
    <path fill="#1A1A30" d="M90.4 14.4v9.3h-4.7V5.5c.9-.6 1.3.5 1.9.8.9.5 1.6 1.3 2.4 2 1.8 1.5 3.5 3.1 5.3 4.6.7.6 1.4 1.1 2.3 1.7.3-1.5.1-2.9.1-4.3V6l.5-.5h4.2v18.8c-1.2-.8-2.2-1.6-3.1-2.5-.9-.9-1.9-1.6-2.9-2.4-1-.8-2-1.7-3-2.5s-1.9-1.6-3-2.5z"/>
    <path fill="#18172E" d="M134.7 5.7c1.8.2 3.4-.4 5.1-.4 1.9 0 3.6.4 5.3 1.1 1.7.7 2.9 2 3.4 3.9.6 2.3.1 4.6-1.5 6-1 .9-2.3 1.4-3.6 1.8-1.4.4-2.8.2-4.3.3v5.3h-4.4v-18zm4.4 9c.9 0 1.6.1 2.3 0 1.1-.1 2.2-.5 2.6-1.7.2-.6.1-1.2.1-1.5-1-2.7-3.2-2-5-2.1v5.3z"/>
    <path fill="#1B1A30" d="M54.4 6.7c.2 1.5-.6 2.5-1.1 3.8-.3-.1-.6-.2-1-.3-.9-.3-1.8-.9-2.9-.7-1 .1-2 0-3.1.3-2.1.6-3.3 2.1-3.6 4-.5 2.5.4 4.4 2.7 5.7 1.6.9 3.3.9 5 .5.8-.2 1.6-.2 2.2-.8.2-.2.6 0 1 0 .4 1 .7 2 1.1 3.2-.3.2-.6.5-1 .8-.7.2-1.4.5-2.1.7-.4.1-.9.3-1.4.3-.8.1-1.6 0-2.3 0-3.4 0-6.3-1.4-8.4-4-.9-1.2-1.7-2.7-1.6-4.3v-1.5c-.1-2.3.8-4.2 2.4-5.8 1.1-1.2 2.5-2 4-2.6.7-.3 1.4-.4 2.1-.5 1.2-.1 2.5-.1 3.7 0 .7 0 1.5.2 2.1.5.8.1 1.5.4 2.2.7z"/>
    <path d="M128.1 23.7h-4.8c-.5-1.1-1-2.2-1.5-3.2h-6.7c-.5 1.1-.9 2.1-1.4 3.3h-4.6c.2-.3.3-.6.4-.8 2.8-5.6 5.6-11.2 8.4-16.7.1-.3.3-.5.5-.8.6.1.7.4.9.8 2.8 5.5 5.6 11.1 8.4 16.6.1.1.2.4.4.8zm-7.8-6.4c-.4-1.6-1-3-2-4.3-.7 1.5-1.3 2.9-1.9 4.3h3.9zM69.5 5.2c.3.3.5.4.5.6 3 5.9 6 11.9 9 17.9h-4.7c-.5-1-1-2.1-1.4-3.2h-6.6c-.5 1.1-1.1 2.2-1.6 3.3h-4.5c3-6.2 6.1-12.3 9.3-18.6zm-1.6 12.2h2c.6 0 1.2.2 1.8-.2-.9-1.4-1.1-3-2.3-4.5-.2 1.9-1.7 2.9-1.5 4.7z" class="st4"/>
    <path fill="#17162C" d="M156.9 5.8h4.3v17.9c-.6.1-1.3 0-2 .1H157c-.1-6-.1-12-.1-18z"/>
    <path fill="#968037" d="M5.7 16.8h1.9c.3 2.2 1.2 4.1 2.9 5.5 1.6 1.3 3.6 1.9 5.9 2 1.8-.4 3.7-.8 5.3-2.2 1.6-1.4 2.2-3.4 2.8-5.3h2.1c-.2 1.3-.4 2.7-1.1 3.7-.7 1.1-1.3 2.4-2.4 3.2-1 .7-2 1.6-3.2 2-1.2.5-2.5.8-3.9.7-2.8-.1-5.4-1.1-7.3-3-1.7-1.6-3.2-3.8-3-6.6z"/>
    <path fill="#978038" d="M26.2 13v1.3h-1.9c-.5-1.7-1.2-3.3-2.6-4.6-1.1-1-2.5-1.8-4-2-2.2-.2-4.5-.3-6.3 1.3-1.7 1.4-3.3 3-3.6 5.3H5.9c-.5-.7 0-1.4.3-2 .6-1.5 1.3-3 2.6-4.1 1.5-1.3 3.2-2.1 5.1-2.6.7-.2 1.4-.4 2.2-.4 1.3 0 2.5.4 3.7.8 1.5.5 2.8 1.2 3.9 2.4.9 1 1.7 1.9 2 3.2-.1.6.2 1 .5 1.4z"/>
  </g>
</svg>