<svg xmlns="http://www.w3.org/2000/svg" width="155.7" height="40.5" overflow="visible" viewBox="0 0 155.7 40.5">
  <path d="M59.7 18.9c3.3 0 6-1.9 6.1-5.1h-1.6c-.2 2.3-2.1 3.6-4.4 3.6h-.2c-3.6 0-5.5-3-5.5-6.7S56 4 59.6 4h.2c2.3 0 4.3 1.3 4.4 3.6h1.6c-.2-3.1-2.8-5.1-6.1-5.1-4.5 0-7.2 3.5-7.2 8.1s2.7 8.3 7.2 8.3zM72.6 7.2c-2.9 0-5.2 2.4-5.2 5.9s2.3 5.9 5.2 5.9c2.9 0 5.2-2.4 5.2-5.9s-2.3-5.9-5.2-5.9zm.1 10.5h-.2c-2 0-3.6-1.7-3.6-4.6s1.6-4.6 3.6-4.6h.2c2 0 3.6 1.7 3.6 4.6s-1.6 4.6-3.6 4.6zm19.4-9.3c1.7 0 2.6 1.1 2.6 3.3v6.9h1.5v-7.4c0-2.7-1.7-4.1-3.8-4.1-1.7-.1-3.2.9-4 2.4-.5-1.5-2-2.5-3.6-2.4-1.5-.1-2.9.7-3.7 2V7.4h-1.5v11.3H81v-5.6c0-2.4 1.1-4.6 3.4-4.6h.1c1.7 0 2.6 1.1 2.6 3.3v6.9h1.5v-5.6c0-2.4 1.1-4.6 3.4-4.6l.1-.1zm19 0c1.7 0 2.6 1.1 2.6 3.3v6.9h1.5v-7.4c0-2.7-1.7-4.1-3.8-4.1-1.7-.1-3.2.9-4 2.4-.5-1.5-2-2.5-3.6-2.4-1.5-.1-2.9.7-3.7 2V7.4h-1.5v11.3h1.5v-5.6c0-2.4 1.1-4.6 3.4-4.6h.1c1.7 0 2.6 1.1 2.6 3.3v6.9h1.5v-5.6c0-2.4 1.1-4.6 3.4-4.6v-.1zm11.2-1.2c-2.6 0-5 1.9-5 5.8s2.2 5.9 5 5.9c2.3 0 4-1.2 4.5-3.5h-1.5c-.3 1.4-1.6 2.3-3 2.2h-.1c-1.9 0-3.5-1.3-3.5-4.5h8.1v-.9c.1-2.8-1.7-5-4.5-5zm-3.5 4.7c.3-2.7 2-3.5 3.4-3.5h.2c1.8 0 2.9 1.5 3 3.5h-6.6zm11.8 1.3c0-2.9 1.3-4.6 3.5-4.6h.9V7.3h-1c-1.7 0-3.1 1.1-3.5 2.7V7.4h-1.4v11.3h1.5v-5.5zm9.7-4.8h.2c1.5 0 2.7 1.1 2.8 2.6h1.5c-.2-2.4-2-3.8-4.4-3.8-3.3 0-5.2 2.6-5.2 5.9s1.9 5.9 5.2 5.9c2.4 0 4-1.5 4.4-3.8h-1.5c-.3 1.4-1.3 2.6-2.8 2.6h-.2c-2.5 0-3.6-2.2-3.6-4.6s1.2-4.8 3.6-4.8zm15.4 3.9c0-2.9-1.8-5.1-4.6-5.1-2.6 0-5 1.9-5 5.8s2.2 5.9 5 5.9c2.3 0 4-1.2 4.5-3.5h-1.5c-.3 1.4-1.6 2.3-3 2.2h-.1c-1.9 0-3.5-1.3-3.5-4.5h8.1v-.8zm-8.1-.4c.3-2.7 2-3.5 3.4-3.5h.2c1.8 0 2.9 1.5 3 3.5h-6.6zm-81.7 9.8l-6 14.1-6.3-14.1h-1.8l7.1 15.8h1.9l6.9-15.8h-1.8zm6.4 4.3c-2.6 0-5 1.9-5 5.9s2.2 5.9 5 5.9c2.3 0 4-1.2 4.5-3.5h-1.5c-.3 1.4-1.6 2.3-3 2.2h-.1c-1.9 0-3.5-1.3-3.6-4.5h8.1v-.9c.1-2.9-1.7-5.1-4.4-5.1zm-3.6 4.8c.3-2.7 2-3.5 3.4-3.5h.2c1.8 0 2.9 1.5 3 3.5h-6.6zM85 26c-1.6-.1-3.1.7-4 2.1v-1.9h-1.5v11.3H81v-5.6c0-2.4 1.2-4.6 3.6-4.6h.1c1.8 0 2.7 1.1 2.7 3.3v6.9h1.5v-7.4c0-2.7-1.7-4.1-3.9-4.1zm8.8 9.4v-7.9h2.6v-1.2h-2.6v-3.7h-1.5v3.7H90v1.2h2.3v8c0 1.5.7 2 2.1 2h2.2v-1.2h-2c-.5 0-.8-.2-.8-.9zm12.6-3.1c0 2.6-1.7 4.2-3.4 4.2h-.2c-1.9 0-2.8-1.1-2.8-3.3v-7h-1.5v7.5c0 2.4 1.4 4.1 4 4.1 1.9 0 3.3-.9 3.9-2.3v2.1h1.5V26.2h-1.5v6.1zm5.9-3.5v-2.6h-1.4v11.3h1.5V32c0-2.8 1.3-4.6 3.5-4.6h.9v-1.3h-1c-1.7 0-3.1 1.1-3.5 2.7zm10-2.8c-2.6 0-5 1.9-5 5.9s2.2 5.9 5 5.9c2.3 0 4-1.2 4.5-3.5h-1.5c-.3 1.4-1.6 2.3-3 2.2h-.1c-1.9 0-3.5-1.3-3.5-4.5h8.1v-.9c.1-2.9-1.7-5.1-4.5-5.1zm-3.5 4.8c.3-2.7 2-3.5 3.4-3.5h.2c1.8 0 2.9 1.5 3 3.5h-6.6zm13.9-3.5h.2c1.4 0 2.5 1 2.6 2.4h1.5c-.1-1.9-1.4-3.6-4.2-3.6-2.1 0-4 1.2-4 3.3 0 1.9 1.3 2.7 3.1 3.1l1.6.3c1.5.3 2 .9 2 1.7 0 1.2-1 2-2.6 2h-.2c-1.6 0-2.8-.8-2.9-2.4h-1.5c.1 2.1 1.6 3.6 4.5 3.6 2.5 0 4.2-1.2 4.1-3.4 0-1.9-1.3-2.6-2.9-3l-1.8-.4c-1.4-.3-2.1-.9-2.1-1.7.2-1 1.1-1.9 2.6-1.9zm7.8-1.3c-1 0-1.8.8-1.8 1.8s.8 1.8 1.8 1.8 1.8-.8 1.8-1.8-.8-1.8-1.8-1.8zm0 3.3c-.9 0-1.6-.7-1.6-1.5 0-.9.7-1.6 1.5-1.6s1.6.7 1.6 1.5c.1.9-.6 1.6-1.5 1.6z" fill="#27a7db"/>
  <path d="M141.2 27.4c0-.3-.2-.5-.5-.5h-.8v1.7h.3V28h.5c.2 0 .2.1.2.2v.4h.3v-.4c0-.3-.1-.4-.3-.4.1 0 .3-.2.3-.4zm-.7.4h-.4v-.6h.4c.2 0 .4.1.4.3s-.1.3-.4.3zM20.2 19.1c-.6 0-1.2.5-1.2 1.2 0 .6.5 1.2 1.2 1.2.6 0 1.2-.5 1.2-1.2s-.5-1.2-1.2-1.2zm6-3.7H38v-2.3h-9l5.6-5.6.8-.8-1.6-1.6-.9.9-5.6 5.6v-9H25v11.8c.1.5.6 1 1.2 1zm-10.8-1.1V2.5h-2.3v9L7.5 6l-.8-.9-1.6 1.7.8.8 5.6 5.6h-9v2.3h11.8c.5-.1 1.1-.6 1.1-1.2zM14.2 25H2.4v2.3h9l-5.6 5.6-.8.8 1.6 1.6.8-.8 5.6-5.6v9h2.3V26.1c0-.6-.5-1.1-1.1-1.1zM25 26.2V38h2.3v-9l5.6 5.6.8.8 1.6-1.6-.8-.8-5.5-5.7h9V25H26.2c-.6 0-1.2.5-1.2 1.2zm14.3-7.1H24.9c-.6 0-1.2.5-1.2 1.2 0 .6.5 1.2 1.2 1.2h14.4c.6 0 1.2-.5 1.2-1.2-.1-.7-.6-1.2-1.2-1.2zm-23.8 0H1.2c-.6 0-1.2.5-1.2 1.2 0 .6.5 1.2 1.2 1.2h14.3c.6 0 1.2-.5 1.2-1.2s-.6-1.2-1.2-1.2zm4.7 4.7c-.6 0-1.1.5-1.2 1.1v14.4c0 .6.5 1.2 1.2 1.2.6 0 1.2-.5 1.2-1.2V24.9c-.1-.6-.6-1.1-1.2-1.1zm0-7.1c.6 0 1.2-.5 1.2-1.2V1.2c0-.6-.5-1.2-1.2-1.2S19 .5 19 1.2v14.3c.1.6.6 1.2 1.2 1.2z" fill="#27a7db"/>
</svg>