<svg version="1.1" xmlns="http://www.w3.org/2000/svg" xmlns:xlink="http://www.w3.org/1999/xlink" x="0px" y="0px" width="222.8px"
	 height="35px" viewBox="0 0 222.8 35" style="overflow:visible;enable-background:new 0 0 222.8 35;" xml:space="preserve">
<style type="text/css">
	.st0{enable-background:new;}
	.st1{fill:#767576;}
	.st2{fill:#B92025;}
	.st3{fill:#E94435;}
	.st4{fill:#981D1F;}
</style>
<defs>
</defs>
<g>
	<g class="st0">
		<path class="st1" d="M72.1,16.3c0,2.1-0.6,3.8-1.9,5.1c-1.4,1.5-3.3,2.3-5.6,2.3c-2.2,0-4.1-0.8-5.6-2.3c-1.5-1.5-2.3-3.4-2.3-5.7
			s0.8-4.1,2.3-5.7c1.5-1.5,3.4-2.3,5.6-2.3c1.1,0,2.2,0.2,3.2,0.6c1,0.4,1.8,1,2.4,1.7l-1.4,1.4c-0.5-0.6-1.1-1-1.8-1.3
			c-0.7-0.3-1.6-0.5-2.4-0.5c-1.7,0-3.1,0.6-4.2,1.7c-1.1,1.2-1.7,2.6-1.7,4.4s0.6,3.2,1.7,4.4c1.2,1.2,2.5,1.7,4.2,1.7
			c1.5,0,2.8-0.4,3.8-1.3c1-0.9,1.6-2,1.7-3.5h-5.5v-1.8h7.4C72,15.5,72.1,15.9,72.1,16.3z"/>
		<path class="st1" d="M75.2,23.3h-2V12.9h1.9v1.7h0.1c0.2-0.6,0.6-1,1.2-1.4c0.6-0.4,1.2-0.6,1.8-0.6c0.6,0,1.1,0.1,1.4,0.2
			l-0.6,1.9c-0.2-0.1-0.6-0.1-1.2-0.1c-0.7,0-1.4,0.3-1.9,0.9c-0.6,0.6-0.8,1.3-0.8,2.1L75.2,23.3L75.2,23.3z"/>
	</g>
	<g class="st0">
		<path class="st1" d="M84.9,12.5c1.4,0,2.6,0.4,3.4,1.2c0.8,0.8,1.2,1.8,1.2,3.2v6.4h-1.9v-1.4h-0.1c-0.8,1.2-1.9,1.8-3.2,1.8
			c-1.2,0-2.1-0.3-2.9-1s-1.2-1.5-1.2-2.5c0-1.1,0.4-1.9,1.2-2.6c0.8-0.6,1.9-1,3.3-1c1.2,0,2.1,0.2,2.9,0.6v-0.4
			c0-0.7-0.3-1.2-0.8-1.7c-0.5-0.5-1.2-0.7-1.9-0.7c-1.1,0-2,0.5-2.6,1.4l-1.7-1.1C81.7,13.2,83.1,12.5,84.9,12.5z M82.4,20.1
			c0,0.5,0.2,0.9,0.6,1.3c0.4,0.3,0.9,0.5,1.5,0.5c0.8,0,1.6-0.3,2.2-0.9c0.6-0.6,1-1.3,1-2.2c-0.6-0.5-1.5-0.7-2.5-0.7
			c-0.8,0-1.5,0.2-2,0.6C82.7,19.1,82.4,19.5,82.4,20.1z"/>
	</g>
	<g class="st0">
		<path class="st1" d="M96.2,23.6c-1.4,0-2.5-0.5-3.5-1.6c-1-1.1-1.4-2.4-1.4-3.9s0.5-2.9,1.4-3.9s2.2-1.6,3.5-1.6
			c0.8,0,1.5,0.2,2.1,0.5c0.6,0.3,1.1,0.7,1.5,1.3h0.1l-0.1-1.4V8h2v15.3h-1.9v-1.4h-0.1c-0.3,0.5-0.8,1-1.5,1.3
			C97.6,23.5,96.9,23.6,96.2,23.6z M96.5,21.9c1,0,1.7-0.4,2.4-1.1c0.6-0.7,1-1.6,1-2.7c0-1.1-0.3-2-1-2.7c-0.6-0.7-1.4-1.1-2.4-1.1
			s-1.7,0.4-2.4,1.1c-0.6,0.7-1,1.6-1,2.7s0.3,2,1,2.7S95.6,21.9,96.5,21.9z"/>
	</g>
	<g class="st0">
		<path class="st1" d="M106.6,9.3c0,0.4-0.1,0.7-0.4,1c-0.3,0.3-0.6,0.4-1,0.4c-0.4,0-0.7-0.1-1-0.4c-0.3-0.3-0.4-0.6-0.4-1
			s0.1-0.7,0.4-1c0.3-0.3,0.6-0.4,1-0.4c0.4,0,0.7,0.1,1,0.4C106.5,8.5,106.6,8.9,106.6,9.3z M106.2,12.9v10.4h-2V12.9H106.2z"/>
	</g>
	<g class="st0">
		<path class="st1" d="M113.3,23.6c-1.5,0-2.8-0.5-3.8-1.6c-1-1.1-1.5-2.4-1.5-4c0-1.6,0.5-2.9,1.4-4s2.2-1.6,3.7-1.6
			c1.6,0,2.8,0.5,3.7,1.5c0.9,1,1.4,2.4,1.4,4.2l0,0.2H110c0,1,0.4,1.9,1,2.5c0.7,0.6,1.4,0.9,2.4,0.9c1.2,0,2.2-0.6,2.9-1.9
			l1.7,0.9c-0.5,0.9-1.1,1.6-1.9,2.1C115.3,23.4,114.4,23.6,113.3,23.6z M110.2,16.8h6c-0.1-0.7-0.4-1.3-0.9-1.8
			c-0.5-0.5-1.2-0.7-2.1-0.7c-0.7,0-1.4,0.2-1.9,0.7C110.7,15.4,110.4,16,110.2,16.8z"/>
	</g>
	<g class="st0">
		<path class="st1" d="M120.1,12.9h1.9v1.4h0.1c0.3-0.5,0.7-0.9,1.4-1.3c0.6-0.3,1.2-0.5,1.9-0.5c1.3,0,2.3,0.4,3,1.1
			c0.7,0.7,1,1.8,1,3.1v6.6h-2v-6.5c-0.1-1.7-0.9-2.5-2.6-2.5c-0.8,0-1.4,0.3-2,0.9c-0.5,0.6-0.8,1.4-0.8,2.3v5.8h-2L120.1,12.9
			L120.1,12.9z"/>
	</g>
	<g class="st0">
		<path class="st1" d="M135.2,23.5c-0.9,0-1.6-0.2-2.1-0.8c-0.6-0.5-0.9-1.2-0.9-2.2v-5.8h-1.8v-1.8h1.8V9.7h2v3.2h2.5v1.8h-2.5v5.2
			c0,0.7,0.1,1.2,0.4,1.4c0.3,0.2,0.6,0.4,0.9,0.4c0.2,0,0.3,0,0.5-0.1c0.1,0,0.3-0.1,0.4-0.1l0.6,1.7
			C136.5,23.4,135.9,23.5,135.2,23.5z"/>
	</g>
	<g class="st0">
		<path class="st1" d="M147.9,23.3h-2.1L140.5,8h2.2l4.2,12.4h0.1L151.3,8h2.2L147.9,23.3z"/>
	</g>
	<g class="st0">
		<path class="st1" d="M159.3,23.6c-1.5,0-2.8-0.5-3.8-1.6c-1-1.1-1.5-2.4-1.5-4c0-1.6,0.5-2.9,1.4-4c1-1.1,2.2-1.6,3.7-1.6
			c1.6,0,2.8,0.5,3.7,1.5c0.9,1,1.4,2.4,1.4,4.2l0,0.2H156c0,1,0.4,1.9,1,2.5c0.7,0.6,1.4,0.9,2.4,0.9c1.2,0,2.2-0.6,2.9-1.9
			l1.7,0.9c-0.5,0.9-1.1,1.6-1.9,2.1C161.3,23.4,160.4,23.6,159.3,23.6z M156.2,16.8h6c-0.1-0.7-0.4-1.3-0.9-1.8
			c-0.5-0.5-1.2-0.7-2.1-0.7c-0.7,0-1.4,0.2-1.9,0.7C156.7,15.4,156.4,16,156.2,16.8z"/>
	</g>
	<g class="st0">
		<path class="st1" d="M166.1,12.9h1.9v1.4h0.1c0.3-0.5,0.7-0.9,1.4-1.3c0.6-0.3,1.2-0.5,1.9-0.5c1.3,0,2.3,0.4,3,1.1
			c0.7,0.7,1,1.8,1,3.1v6.6h-2v-6.5c-0.1-1.7-0.9-2.5-2.6-2.5c-0.8,0-1.4,0.3-2,0.9c-0.5,0.6-0.8,1.4-0.8,2.3v5.8h-2L166.1,12.9
			L166.1,12.9z"/>
	</g>
	<g class="st0">
		<path class="st1" d="M181.2,23.5c-0.9,0-1.6-0.2-2.1-0.8c-0.6-0.5-0.9-1.2-0.9-2.2v-5.8h-1.8v-1.8h1.8V9.7h2v3.2h2.5v1.8h-2.5v5.2
			c0,0.7,0.1,1.2,0.4,1.4c0.3,0.2,0.6,0.4,0.9,0.4c0.2,0,0.3,0,0.5-0.1c0.1,0,0.3-0.1,0.4-0.1l0.6,1.7
			C182.5,23.4,181.9,23.5,181.2,23.5z"/>
		<path class="st1" d="M193.8,23.3h-1.9v-1.4h-0.1c-0.3,0.5-0.7,0.9-1.4,1.3c-0.6,0.3-1.3,0.5-1.9,0.5c-1.3,0-2.3-0.4-3-1.1
			c-0.7-0.7-1-1.8-1-3.1v-6.5h2v6.4c0.1,1.7,0.9,2.5,2.6,2.5c0.8,0,1.4-0.3,2-0.9c0.5-0.6,0.8-1.4,0.8-2.3v-5.8h2L193.8,23.3
			L193.8,23.3z"/>
	</g>
	<g class="st0">
		<path class="st1" d="M198.2,23.3h-2V12.9h1.9v1.7h0.1c0.2-0.6,0.6-1,1.2-1.4c0.6-0.4,1.2-0.6,1.8-0.6c0.6,0,1.1,0.1,1.4,0.2
			l-0.6,1.9c-0.2-0.1-0.6-0.1-1.2-0.1c-0.7,0-1.4,0.3-1.9,0.9c-0.6,0.6-0.8,1.3-0.8,2.1L198.2,23.3L198.2,23.3z"/>
	</g>
	<g class="st0">
		<path class="st1" d="M208,23.6c-1.5,0-2.8-0.5-3.8-1.6c-1-1.1-1.5-2.4-1.5-4c0-1.6,0.5-2.9,1.4-4s2.2-1.6,3.7-1.6
			c1.6,0,2.8,0.5,3.7,1.5c0.9,1,1.4,2.4,1.4,4.2l0,0.2h-8.2c0,1,0.4,1.9,1,2.5c0.7,0.6,1.4,0.9,2.4,0.9c1.2,0,2.2-0.6,2.9-1.9
			l1.7,0.9c-0.5,0.9-1.1,1.6-1.9,2.1C210,23.4,209,23.6,208,23.6z M204.8,16.8h6c-0.1-0.7-0.4-1.3-0.9-1.8c-0.5-0.5-1.2-0.7-2.1-0.7
			c-0.7,0-1.4,0.2-1.9,0.7C205.4,15.4,205,16,204.8,16.8z"/>
	</g>
	<g class="st0">
		<path class="st1" d="M222.8,20.4c0,0.9-0.4,1.7-1.2,2.3c-0.8,0.6-1.8,0.9-3,0.9c-1.1,0-2-0.3-2.8-0.8c-0.8-0.6-1.4-1.3-1.7-2.2
			l1.7-0.7c0.2,0.6,0.6,1.1,1.1,1.5c0.5,0.4,1,0.5,1.6,0.5c0.6,0,1.1-0.1,1.6-0.4c0.4-0.3,0.6-0.6,0.6-1c0-0.7-0.5-1.2-1.5-1.5
			l-1.8-0.4c-2-0.5-3-1.5-3-2.9c0-0.9,0.4-1.7,1.2-2.3c0.8-0.6,1.8-0.9,3-0.9c0.9,0,1.7,0.2,2.5,0.7c0.7,0.4,1.3,1,1.6,1.8l-1.7,0.7
			c-0.2-0.4-0.5-0.8-1-1c-0.4-0.2-0.9-0.4-1.5-0.4c-0.5,0-1,0.1-1.4,0.4s-0.6,0.6-0.6,0.9c0,0.6,0.6,1,1.7,1.3l1.6,0.4
			C221.8,17.8,222.8,18.8,222.8,20.4z"/>
	</g>
	<path class="st2" d="M0,3.7c0,2,1.7,3.7,3.7,3.7h19.6c2,0,3.7-1.7,3.7-3.7H0z"/>
	<path class="st2" d="M22.8,29.5L6.9,1.8c-1-1.7-3.3-2.4-5-1.3l0,0l19.6,34C23.2,33.5,23.8,31.2,22.8,29.5z"/>
	<path class="st3" d="M1.8,0.5c-1.7,1-2.4,3.3-1.3,5l16,27.6c1,1.8,3.3,2.4,5,1.4l0,0l0,0L1.8,0.5z"/>
	<path class="st3" d="M27,3.7c0-2-1.7-3.7-3.7-3.7H3.7C1.7,0,0,1.7,0,3.7H27L27,3.7z"/>
	<path class="st3" d="M37.4,0.5c-1.7-1-4-0.4-5,1.4l-16,27.6c-1,1.8-0.4,4,1.4,5L37.4,0.5L37.4,0.5z"/>
	<path class="st4" d="M37.4,0.5l-19.6,34l0,0c1.7,1,4,0.4,5-1.3l0,0l16-27.6C39.8,3.8,39.2,1.5,37.4,0.5z"/>
</g>
</svg>
