<svg version="1.1" xmlns="http://www.w3.org/2000/svg" xmlns:xlink="http://www.w3.org/1999/xlink" x="0px" y="0px" width="184.1px"
	 height="30px" viewBox="0 0 184.1 30" style="overflow:visible;enable-background:new 0 0 184.1 30;" xml:space="preserve">
<style type="text/css">
	.st0{fill:#0892CD;}
	.st1{fill:#2969B2;}
	.st2{fill:#44429A;}
</style>
<defs>
</defs>
<g id="Group_144_1_" transform="translate(0 0.013)">
	<path id="Path_339_1_" class="st0" d="M7.7,29.7H0V0h32.4v7.7H7.7V29.7z"/>
	<rect id="Rectangle_163_1_" x="37.1" y="0" class="st0" width="35" height="7.6"/>
	<path id="Path_340_1_" class="st1" d="M18.9,29.7h-7.6V11.1h21v7.6H18.9V29.7z"/>
	<rect id="Rectangle_164_1_" x="37.1" y="11.1" class="st1" width="35" height="7.6"/>
	<rect id="Rectangle_165_1_" x="37.1" y="22.1" class="st2" width="35" height="7.6"/>
</g>
<path id="Path_341_1_" class="st0" d="M82.4,0h5.9c1.4-0.1,2.7,0.4,3.7,1.3c0.7,0.8,1.1,1.8,1.1,2.9l0,0c0.1,1.8-1,3.5-2.7,4
	l3.1,4.6h-3.2l-2.7-4.1h-2.3v4.1h-2.8V0z M88,6.3c1.4,0,2.2-0.7,2.2-1.8l0,0c0-1.2-0.8-1.8-2.2-1.8h-2.8v3.7H88z"/>
<path id="Path_342_1_" class="st0" d="M95.8,0h5.9c1.4-0.1,2.7,0.4,3.7,1.3c0.7,0.8,1.1,1.8,1.1,2.9l0,0c0.1,1.8-1,3.5-2.7,4
	l3.1,4.6h-3.3l-2.7-4.1h-2.2v4.1h-2.8V0z M101.5,6.3c1.4,0,2.2-0.7,2.2-1.8l0,0c0-1.2-0.8-1.8-2.2-1.8h-2.8v3.7H101.5z"/>
<path id="Path_343_1_" class="st0" d="M109.3,0h9.7v2.6H112v2.6h6.1v2.6H112v2.7h7V13h-9.8V0z"/>
<path id="Path_344_1_" class="st2" d="M81.3,16.8h3.1l3.4,9.1l3.4-9.1h3l-5.2,13h-2.5L81.3,16.8z"/>
<path id="Path_345_1_" class="st2" d="M96.1,16.8h9.7v2.6h-6.9V22h6.1v2.6h-6.1v2.7h7v2.6h-9.8V16.8z"/>
<path id="Path_346_1_" class="st2" d="M108.7,16.8h2.7l6,8v-8h2.8v12.9h-2.4l-6.2-8.2v8.2h-2.8L108.7,16.8z"/>
<path id="Path_347_1_" class="st2" d="M126.1,19.4h-3.9v-2.6h10.7v2.7h-3.9v10.2h-2.8V19.4z"/>
<path id="Path_348_1_" class="st2" d="M134.8,24.1v-7.3h2.8v7.3c0,2.1,1,3.2,2.7,3.2s2.7-1,2.7-3.1v-7.4h2.8v7.3
	c0,3.9-2.2,5.9-5.7,5.9C136.8,30,134.8,28,134.8,24.1z"/>
<path id="Path_349_1_" class="st2" d="M149.1,16.8h5.9c1.4-0.1,2.7,0.4,3.7,1.3c0.7,0.8,1.1,1.8,1.1,2.9l0,0c0.1,1.8-1,3.5-2.7,4
	l3.1,4.6h-3.3l-2.7-4.1H152v4.1h-2.8L149.1,16.8z M154.8,23.1c1.4,0,2.2-0.7,2.2-1.8l0,0c0-1.2-0.8-1.8-2.2-1.8H152v3.7L154.8,23.1z
	"/>
<path id="Path_350_1_" class="st2" d="M162.6,16.8h9.7v2.6h-6.9V22h6.1v2.6h-6.1v2.7h7v2.6h-9.8V16.8z"/>
<path id="Path_351_1_" class="st2" d="M174.1,27.8l1.6-2c1.1,1,2.4,1.5,3.8,1.6c1.2,0,1.8-0.5,1.8-1.2l0,0c0-0.7-0.5-1.1-2.6-1.6
	c-2.1-0.5-4.3-1.4-4.3-3.9l0,0c0-2.4,1.9-3.9,4.5-3.9c1.7,0,3.4,0.6,4.8,1.6l-1.5,2.1c-1-0.8-2.2-1.2-3.4-1.3
	c-1.1,0-1.6,0.5-1.6,1.1l0,0c0,0.8,0.5,1.1,2.7,1.7c2.2,0.6,4.1,1.6,4.1,3.8l0,0c0,2.6-1.9,4-4.8,4
	C177.4,29.8,175.6,29.1,174.1,27.8z"/>
</svg>