<svg xmlns="http://www.w3.org/2000/svg" width="148.1" height="20" overflow="visible" viewBox="0 0 148.1 20">
  <path fill="#999" d="M7.1 0h3.6v16.8c0 2.1-1.2 3.1-3.4 3.1H3.4c-2.3 0-3.4-1-3.4-3.1V0h3.6v16.3c0 .3.1.6.2.7.1.1.4.2.7.2h1.7c.4 0 .6-.1.7-.2.1-.1.2-.3.2-.7V0zM21 0h3.3v20h-3.4L16.6 6.7V20h-3.4V0h3.5L21 13V0zm16.4 6.6h-3.7V3.5c0-.3-.1-.6-.2-.7-.1-.1-.4-.2-.7-.2h-1.5c-.3 0-.6.1-.7.2-.1.1-.2.3-.2.7v13c0 .3.1.6.2.7.1.1.4.2.7.2h1.5c.3 0 .6-.1.7-.2.1-.1.2-.3.2-.7v-3h3.7v3.4c0 2.1-1.1 3.1-3.4 3.1h-3.7c-2.3 0-3.4-1-3.4-3.1V3.1C26.8 1 27.9 0 30.2 0h3.7c2.3 0 3.4 1 3.4 3.1v3.5zM42.8 0h3.9c2.3 0 3.4 1 3.4 3.1v13.7c0 2.1-1.2 3.1-3.4 3.1h-3.9c-2.3 0-3.4-1-3.4-3.1V3.1C39.3 1 40.5 0 42.8 0zm3.7 16.3V3.6c0-.3-.1-.6-.2-.7-.1-.1-.4-.2-.7-.2h-1.7c-.4 0-.6.1-.7.2-.2.2-.2.4-.2.7v12.7c0 .3.1.6.2.7.1.1.4.2.7.2h1.7c.3 0 .6-.1.7-.2.1-.1.2-.3.2-.7zm9.7-4.1V20h-3.6V0h7.3c2.3 0 3.4 1 3.4 3.1V9c0 1.7-.8 2.7-2.3 3l3.3 7.9h-3.9l-3-7.8h-1.2zm0-9.4v6.7h2.6c.3 0 .6-.1.7-.2.1-.1.2-.3.2-.7v-5c0-.3-.1-.6-.2-.7-.1-.1-.4-.2-.7-.2h-2.6zm13.5 9.4V20H66V0h7.3c2.3 0 3.4 1 3.4 3.1V9c0 1.7-.8 2.7-2.3 3l3.3 7.9h-3.9l-3-7.8h-1.1zm0-9.4v6.7h2.6c.3 0 .6-.1.7-.2.1-.1.2-.3.2-.7v-5c0-.3-.1-.6-.2-.7-.1-.1-.4-.2-.7-.2h-2.6zm12.5 14.4h6.1V20h-9.7V0H88v2.8h-5.8v5.5h4.9v2.8h-4.9v6.1zm11.6 0h5.3V20h-9V0h3.6v17.2zm15.6 2.8l-.8-4.1h-4.4l-.7 4.1H100l4-20h4.9l4.2 20h-3.7zm-4.6-6.9h3.4l-1.7-9.6-1.7 9.6zM123.4 0v2.8h-3.5V20h-3.6V2.8h-3.5V0h10.6zm5.5 17.2h6.1V20h-9.7V0h9.5v2.8H129v5.5h4.9v2.8H129v6.1zM137 0h7.6c2.3 0 3.4 1 3.4 3.1v13.7c0 2.1-1.1 3.1-3.4 3.1H137V0zm7.4 16.5v-13c0-.3-.1-.6-.2-.7-.1-.1-.4-.2-.7-.2h-2.8v14.7h2.8c.3 0 .6-.1.7-.2.1-.1.2-.3.2-.6z"/>
</svg>