<svg xmlns="http://www.w3.org/2000/svg" width="110.4" height="35" overflow="visible" viewBox="0 0 110.4 35">
  <g id="_x32_hZufK_2_">
    <path d="M16 0c.4.1.9.2 1.3.4C23 2 26.5 5.7 27.8 11.5c.1.3.2.7.3 1.1 2.5-.7 5-1 7.1 1.1 1.7 1.7 1.9 3.8 1.8 6.2h-8.8c.2 1.3.8 1.9 1.8 2.3 1.6.6 2.7-.1 3.8-1.3.9.6 1.7 1.3 2.6 1.9-2.2 3.4-7.2 3.4-10.9 0-.4.4-.7.8-1.1 1.2-3.9 4-8.6 5.4-14 3.9-5.5-1.5-8.7-5.3-10-10.8-.1-.3-.2-.6-.3-.8v-4.1c.1-.3.2-.5.3-.8C1.7 5.6 5.1 2 10.8.4c.4-.1.9-.3 1.3-.4H16zm10.5 13.5c-.1-6-5-11.2-11-12C9.3.8 3.4 5 1.9 11.2.4 17.3 3.6 23.6 9.4 26c5.6 2.2 12.3 0 15.1-5-.7-2.8-.3-5.4 2-7.5zm1.6 3.7H33c-.2-1.5-.9-2.2-2.2-2.3-1.4-.1-2.3.7-2.7 2.3z" fill="#007a50"/>
    <path d="M29.3 35c-2.1-.3-4.1-.6-6.2-1-4.1-.8-8-2.2-11.7-4.2-.4-.2-.8-.5-1.2-.8 2.2.6 4.4 1.2 6.6 1.7 9.6 2.1 19.3 2.7 29 .4 5.2-1.1 10-3.1 14.5-5.7-.2.2-.4.5-.6.7-.2.2-.4.4-.7.6-4.4 3.7-9.5 5.8-15.1 7.1-2.3.5-4.6.7-6.8 1.1-.3 0-.6.1-.9.2-2.2-.1-4.5-.1-6.9-.1z" fill="#007a50"/>
    <path d="M70.5 5.5v19.4h-3.4c0-.4-.1-.8-.1-1.2-.1 0-.3 0-.3.1-3.6 3-8.7 1.2-9.5-3.5-.2-1-.2-2.2 0-3.2.9-4.6 5.4-6.5 9.5-3.7v-4-3.9h3.8zm-9.6 13.2c0 1.9 1.2 3.2 3.1 3.1 1.8 0 3-1.3 3-3.2 0-1.9-1.3-3.2-3.1-3.2-1.8.1-3 1.4-3 3.3zM106.3 24.9h-3.8v-1.5-5.7c0-1.5-.7-2.2-1.9-2.3-1.3 0-2.1.7-2.2 2.1-.1 1.6-.1 3.3-.1 4.9v2.4h-3.8V12.4h3.6c0 .4.1.8.1 1.4 1.2-1.3 2.5-1.9 4.2-1.8 2 .1 3.3 1.1 3.8 3 .1.3.2.6.2.9-.1 3-.1 6-.1 9zM91.7 24.9h-3.6c0-.4-.1-.7-.1-1.2-.2.1-.3.1-.4.2-1.6 1.5-3.5 1.6-5.4 1-1.6-.5-2.5-1.7-2.6-3.3-.1-1.6.5-3 2.1-3.6 1.3-.5 2.8-.7 4.2-1 .7-.1 1.3 0 2.1 0 0-1.1-.5-1.7-1.4-2.1-1.6-.6-2.9.1-4.1 1.2L80.4 14c.6-.4 1.1-.8 1.6-1.1 1.8-.9 3.7-1.1 5.6-.8 2.2.4 3.5 1.6 3.7 3.8.3 3 .3 6 .4 9zm-3.8-5.5c-1.2.2-2.3.2-3.4.5-.8.2-1.3.7-1.1 1.6.2.8.8 1.1 1.5 1.1 1.5.2 3.5-.8 3-3.2zM43.5 24.9h-3.8V12.4h3.7c0 .5.1 1 .1 1.5.7-.5 1.3-1.2 2.1-1.6.8-.3 1.7-.3 2.7-.4v3.6c-.6-.1-1.1-.1-1.7-.1-1.9 0-2.9.8-3.1 2.7-.2 1.4-.1 2.7-.1 4.1.1.9.1 1.8.1 2.7zM51 12.4h3.7v12.4H51V12.4zM73.7 12.4h3.7v12.5h-3.7V12.4zM78 5c6.7-6.5 19.2-5.4 24.7-.1C94.3 1.2 86.2.8 78 5zM52.8 6.2c1.3 0 2.3.9 2.3 2.2 0 1.2-.9 2.2-2.2 2.2-1.3 0-2.3-.9-2.3-2.2.1-1.3 1-2.2 2.2-2.2zM77.8 8.4c0 1.2-1 2.2-2.2 2.2-1.3 0-2.3-1-2.2-2.3 0-1.2 1-2.2 2.2-2.2 1.2.1 2.2 1.1 2.2 2.3zM15.7 24.9h-3.6c-2.4-6-4.8-12-7.2-18.2h4.6c1.4 3.8 2.9 7.8 4.5 11.9 1.6-4.1 3.1-8 4.6-12h4.6c-2.6 6.2-5 12.3-7.5 18.3z" fill="#007a50"/>
    <path d="M14.1 10.6c-1.2 0-2.2-.9-2.3-2.1-.1-1.3.9-2.3 2.1-2.3 1.2 0 2.2.9 2.3 2.1.1 1.3-.8 2.3-2.1 2.3z" fill="#007a50"/>
  </g>
  <path d="M64.8 29.2c-.1 0-.1 0 0 0-.1.1-.1.1 0 0-.1.1-.2 0-.2 0-.1 0-.1-.1-.2-.1-.1-.1-.2-.1-.4-.1-.1 0-.3-.1-.4-.1-.2 0-.5 0-.6.1-.2.1-.3.2-.5.4l-.3.6c-.1.2-.1.5-.1.8 0 .3 0 .6.1.8l.3.6c.1.2.3.3.5.4.2.1.4.1.6.1.2 0 .4 0 .5-.1.1 0 .3-.1.3-.2.1-.1.2-.1.2-.2.1 0 .1-.1.1-.1h.1l.1.1c-.1.1-.1.2-.2.2-.1.1-.2.1-.3.2s-.3.1-.4.1h-.5c-.3 0-.5 0-.7-.1-.2-.1-.4-.2-.6-.4-.2-.2-.3-.4-.4-.7-.1-.3-.1-.6-.1-.9 0-.3 0-.6.1-.9.1-.3.2-.5.4-.7.2-.2.4-.3.6-.4.2-.1.5-.2.8-.2.3 0 .5 0 .7.1.2.1.4.2.6.4l-.1.3zM66.2 32.9v-4.2H66.5v1c.1-.3.3-.6.5-.8.2-.2.5-.3.8-.3h.4c.2 0 .2.1.3.1l.1.3s0 .1-.1.1h-.1-.1-.4c-.3 0-.6.1-.8.3-.2.2-.4.5-.5.9V33h-.4zM71.4 28.6c.2 0 .5 0 .7.1.2.1.4.2.5.4.1.2.3.4.3.6.1.2.1.5.1.8v.1h-3.1v.1c0 .3 0 .6.1.8l.3.6c.1.2.3.3.5.4.2.1.4.1.6.1.2 0 .4 0 .6-.1.2 0 .3-.1.4-.2.1-.1.2-.1.3-.2.1 0 .1-.1.1-.1h.1l.1.1c-.1.1-.2.2-.3.2-.1.1-.2.1-.4.2-.1.1-.3.1-.4.1h-.5c-.3 0-.6-.1-.8-.2s-.4-.2-.6-.4c-.2-.2-.3-.4-.4-.7-.1-.3-.1-.6-.1-1 0-.3 0-.6.1-.8.1-.3.2-.5.4-.7.2-.2.4-.3.6-.4.2.2.5.2.8.2zm0 .3c-.2 0-.4 0-.6.1-.2.1-.3.2-.4.3-.1.1-.2.3-.3.5-.1.2-.1.4-.2.6h2.8c0-.2 0-.4-.1-.6-.1-.2-.1-.3-.3-.5-.1-.1-.2-.2-.4-.3-.1-.1-.3-.1-.5-.1zM77.6 32.9c-.1 0-.1 0-.1-.1v-.7c-.2.3-.4.5-.7.6-.3.2-.5.2-.8.2-.5 0-.9-.2-1.2-.5-.3-.4-.4-.9-.4-1.6 0-.3 0-.6.1-.9.1-.3.2-.5.4-.7.2-.2.3-.4.6-.5.2-.1.5-.2.8-.2.3 0 .5.1.7.2.2.1.4.3.5.5v-2.5h.4v6.2h-.3zm-1.6-.3c.3 0 .5-.1.8-.2.2-.1.4-.3.6-.6v-2.2c-.2-.2-.3-.4-.5-.5-.2-.1-.4-.1-.7-.1s-.5 0-.7.1c-.2.1-.3.2-.5.4l-.3.6c-.1.2-.1.5-.1.8 0 .6.1 1.1.3 1.4.4.2.7.3 1.1.3zM80.2 27.2v.1s0 .1-.1.1l-.1.1h-.2s-.1 0-.1-.1l-.1-.1v-.1-.1s0-.1.1-.1l.1-.1h.2s.1 0 .1.1l.1.1c-.1 0 0 0 0 .1zm-.2 1.5v4.2h-.4v-4.2h.4zM82.9 32.9c-.3 0-.5-.1-.7-.2-.1-.1-.2-.4-.2-.7v-2.9h-.6-.1V28.8l.7-.1.1-1.5v-.1H82.4v1.6h1.3v.3h-1.3v3.3c0 .1.1.2.1.2.1.1.1.1.2.1h.5c.1 0 .1-.1.2-.1s.1-.1.1-.1h.2l.1.2c-.1.1-.2.2-.4.3h-.5zM87.4 28.7v2.7c0 .4.1.7.3.9s.5.3.8.3c.3 0 .5-.1.8-.2.2-.1.5-.3.6-.6v-3.2h.4v4.2h-.2c-.1 0-.1 0-.1-.1v-.6c-.2.2-.4.4-.7.6-.3.1-.5.2-.9.2-.2 0-.4 0-.6-.1s-.3-.2-.4-.3c-.1-.1-.2-.3-.3-.5-.1-.2-.1-.4-.1-.7v-2.7h.4zM92 32.9v-4.2h.2c.1 0 .1 0 .1.1v.6c.2-.2.4-.4.7-.6.3-.1.5-.2.9-.2.2 0 .4 0 .6.1.2.1.3.2.4.3.1.1.2.3.3.5.1.2.1.4.1.7v2.7H95v-2.7c0-.4-.1-.7-.3-.9-.2-.2-.5-.3-.8-.3-.3 0-.5.1-.8.2s-.4.3-.6.6V33H92zM97.6 27.2v.1s0 .1-.1.1l-.1.1h-.2s-.1 0-.1-.1l-.1-.1v-.1-.1s0-.1.1-.1l.1-.1h.2s.1 0 .1.1l.1.1v.1zm-.2 1.5v4.2H97v-4.2h.4zM100.9 28.6c.3 0 .6.1.8.2.2.1.4.3.6.4.2.2.3.4.4.7.1.3.1.6.1.9s0 .6-.1.9c-.1.3-.2.5-.4.7-.2.2-.4.3-.6.4-.2.1-.5.2-.8.2-.3 0-.6-.1-.8-.2-.2-.1-.4-.2-.6-.4-.2-.2-.3-.4-.4-.7-.1-.3-.1-.6-.1-.9s0-.6.1-.9c.1-.3.2-.5.4-.7s.4-.3.6-.4c.2-.2.5-.2.8-.2zm0 4c.3 0 .5 0 .7-.1.2-.1.3-.2.5-.4l.3-.6c.1-.2.1-.5.1-.8 0-.3 0-.5-.1-.8l-.3-.6c-.1-.2-.3-.3-.5-.4s-.4-.1-.7-.1c-.3 0-.5 0-.7.1s-.3.2-.5.4l-.3.6c-.1.2-.1.5-.1.8 0 .3 0 .5.1.8l.3.6c.1.2.3.3.5.4.2.1.4.1.7.1zM104.2 32.9v-4.2h.2c.1 0 .1 0 .1.1v.6c.2-.2.4-.4.7-.6.3-.1.5-.2.9-.2.2 0 .4 0 .6.1.2.1.3.2.4.3.1.1.2.3.3.5.1.2.1.4.1.7v2.7h-.4v-2.7c0-.4-.1-.7-.3-.9-.2-.2-.5-.3-.8-.3-.3 0-.5.1-.8.2s-.4.3-.6.6V33h-.4z" fill="#007a50"/>
  <g>
    <path d="M107.5 14.3c0-.1 0-.3.1-.4 0-.1.1-.2.1-.4.1-.1.1-.2.2-.3.1-.1.2-.2.3-.2.1-.1.2-.1.3-.1.1 0 .3-.1.4-.1.1 0 .3 0 .4.1.1 0 .2.1.4.1.1.1.2.1.3.2.1.1.2.2.2.3.1.1.1.2.1.4 0 .1.1.3.1.4 0 .1 0 .3-.1.4 0 .1-.1.2-.1.4-.1.1-.1.2-.2.3-.1.1-.2.2-.3.2-.1.1-.2.1-.4.1-.1 0-.3.1-.4.1-.1 0-.3 0-.4-.1-.1 0-.2-.1-.3-.1-.1-.1-.2-.1-.3-.2-.1-.1-.2-.2-.2-.3-.1-.1-.1-.2-.1-.3-.1-.2-.1-.4-.1-.5zm.2 0v.3c0 .1.1.2.1.3.1.1.1.2.2.3.1.1.2.1.3.2.1.1.2.1.3.1h.3c.2 0 .3 0 .5-.1s.3-.2.4-.3c.1-.1.2-.3.3-.4.1-.2.1-.3.1-.5v-.3c0-.1-.1-.2-.1-.3-.1-.1-.1-.2-.2-.3-.1-.1-.2-.1-.3-.2-.1-.1-.2-.1-.3-.1h-.3c-.2 0-.3 0-.5.1s-.3.2-.4.3-.2.3-.3.4c-.1.2-.1.3-.1.5zm1 .2v.7h-.3v-1.8h.6c.2 0 .4 0 .5.1.1.1.2.2.2.4 0 .1 0 .2-.1.3-.1.1-.2.1-.3.2l.1.1v.1l.5.7h-.3s-.1 0-.1-.1l-.4-.6h-.4zm0-.2h.4c.1 0 .1 0 .1-.1l.1-.1V14v-.1s0-.1-.1-.1c0 0-.1 0-.1-.1h-.5v.6z" fill="#007a50"/>
  </g>
</svg>