<svg viewBox="0 0 160 120" xmlns="http://www.w3.org/2000/svg"><g fill="#fff"><path d="m92.7 40.55a2 2 0 1 0 -2.79 2.87 11.49 11.49 0 0 0 5.23 2.67v.52a2 2 0 0 0 4 0v-.54c3-.64 5.62-2.7 5.62-6.08 0-3.76-2.91-5.15-5.62-6v-4.75a6.23 6.23 0 0 1 1.62 1 2 2 0 0 0 2.74-2.92 10.12 10.12 0 0 0 -4.36-2.2v-.32a2 2 0 0 0 -4 0v.2c-3.87.7-5.66 3.45-5.66 6 0 3.76 2.94 5.13 5.66 6v5a7.54 7.54 0 0 1 -2.44-1.45zm6.44-2.31c1.16.48 1.62 1 1.62 1.75a2.1 2.1 0 0 1 -1.62 1.91zm-5.66-7.19a2.13 2.13 0 0 1 1.66-1.9v3.63c-1.2-.48-1.66-.95-1.66-1.73z"/><path d="m97.13 56.55a20.87 20.87 0 1 0 -20.86-20.87 20.89 20.89 0 0 0 20.86 20.87zm0-37.73a16.87 16.87 0 1 1 -16.86 16.86 16.89 16.89 0 0 1 16.86-16.86z"/><path d="m129 60.86a2.94 2.94 0 0 0 -2.5-1.38h-22.7a3 3 0 0 0 -2.51 1.41l-7.66 9.11-7.63-9.11a3 3 0 0 0 -2.52-1.41h-5.48a17.95 17.95 0 0 0 -35.82 0h-8.72a3 3 0 0 0 -2.67 4.23 2 2 0 0 0 .3.45l8.42 9.67v23.35a8 8 0 0 0 8 8h65a8 8 0 0 0 8-8v-23.35l8.42-9.67a2 2 0 0 0 .3-.45 3 3 0 0 0 -.23-2.85zm-68.87-14.2a14 14 0 0 1 13.87 12.82h-11.86v-2.81a5.94 5.94 0 0 1 1.23.68 2 2 0 0 0 2.59-3 9.46 9.46 0 0 0 -3.82-1.82v-.81a2 2 0 1 0 -4 0v.76c-3.51.66-5.13 3.05-5.13 5.3a4.87 4.87 0 0 0 .31 1.74h-7.1a14 14 0 0 1 13.91-12.86zm-2 9.93v2.16c-.76-.3-1.13-.6-1.13-1s.45-.89 1.14-1.16zm-22.33 6.89h47.14l6.39 7.6h-46.91zm55.83 37.7h-44.12a4 4 0 0 1 -4-4v-22.1h48.12zm24.86-4a4 4 0 0 1 -4 4h-16.86v-26.1h20.86zm1.09-26.1h-19.65l6.4-7.6h19.87z"/></g></svg>