<svg viewBox="0 0 160 120" xmlns="http://www.w3.org/2000/svg"><g fill="#fff"><path d="m74.23 56.26a2 2 0 0 0 -2.79 2.86 13.62 13.62 0 0 0 6.7 3.3v1.06a2 2 0 0 0 4 0v-1.09c3.75-.67 7-3.1 7-7.19 0-4.51-3.69-6.13-7-7.13v-7a8 8 0 0 1 2.86 1.52 2 2 0 0 0 2.74-2.92 12.11 12.11 0 0 0 -5.6-2.73v-.79a2 2 0 1 0 -4 0v.75c-4.85.71-7.08 4-7.08 7.12 0 4.5 3.74 6.1 7.08 7.08v7.23a10 10 0 0 1 -3.91-2.07zm7.91-4c2.07.72 3 1.47 3 2.92 0 1.88-1.61 2.71-3 3.08zm-7.08-8.26c0-1.49 1.18-2.6 3.08-3.05v5.95c-2.26-.78-3.08-1.5-3.08-2.9z"/><path d="m117 29.61h-9.83v-8a2.89 2.89 0 0 0 -2.89-2.88h-48.58a2.89 2.89 0 0 0 -2.89 2.88v8h-9.81a2.89 2.89 0 0 0 -2.9 2.89v12.21a14.52 14.52 0 0 0 13.25 14.45 27.22 27.22 0 0 0 24.65 21.75v6.71c-2 0-4 .16-5.92.38l-13.47 1.47a3.61 3.61 0 0 0 -3.47 3.6v5.23h-8a2 2 0 0 0 0 4h65.72a2 2 0 0 0 0-4h-8v-5.23a3.6 3.6 0 0 0 -3.47-3.6l-13.2-1.47c-2-.23-4.12-.34-6.19-.4v-6.7a27.22 27.22 0 0 0 24.65-21.75 14.52 14.52 0 0 0 13.25-14.44v-12.21a2.89 2.89 0 0 0 -2.9-2.89zm-64.38 25.39a10.54 10.54 0 0 1 -8.52-10.29v-11.1h8.52zm35.13 37 13.11 1.46v4.84h-41.72v-4.86l13.38-1.44a69.86 69.86 0 0 1 15.23 0zm15.44-38.17a23.19 23.19 0 0 1 -46.38 0v-31.13h46.38zm12.71-9.1a10.54 10.54 0 0 1 -8.52 10.27v-21.39h8.52z"/></g></svg>