<svg id="Layer_1" data-name="Layer 1" xmlns="http://www.w3.org/2000/svg" viewBox="0 0 100.32 103.08"><path d="M19.76,0h26a1,1,0,0,1,1,1V92.86a1,1,0,0,1-1,1h-26a8,8,0,0,1-8-8V8A8,8,0,0,1,19.76,0Z" fill="#e44c35"/><path d="M54.66,9.22h26a8,8,0,0,1,8,8V95.08a8,8,0,0,1-8,8h-26a1,1,0,0,1-1-1V10.22A1,1,0,0,1,54.66,9.22Z" fill="#e44c35"/><path d="M21.05,65.83h-.2a11.25,11.25,0,0,0-11.29,11,11,11,0,0,0,3.18,8,11.33,11.33,0,0,0,7.92,3.4h.19A11.34,11.34,0,0,0,30,83.55l.08-.12.68-1.07a.75.75,0,0,0,.07-.12,11,11,0,0,0-1.85-13A11.27,11.27,0,0,0,21.05,65.83Zm6.28,14.45-.6,1A7.37,7.37,0,0,1,15.6,82a7,7,0,0,1-2-5.09A7.32,7.32,0,0,1,26.11,72a7,7,0,0,1,1.22,8.25Z"/><path d="M79.26,65.83a11.25,11.25,0,0,0-7.91,3.4,11,11,0,0,0-1.85,13,.75.75,0,0,0,.07.12l.68,1.07a.83.83,0,0,0,.08.12,11.33,11.33,0,0,0,9.13,4.61h.2a11.33,11.33,0,0,0,7.92-3.4,11,11,0,0,0,3.17-8A11.28,11.28,0,0,0,79.26,65.83ZM84.72,82a7.37,7.37,0,0,1-11.13-.72l-.6-1a6.88,6.88,0,0,1-.82-3.16,7,7,0,0,1,2-5.09,7.37,7.37,0,0,1,5.13-2.2,7.22,7.22,0,0,1,7.42,7A7,7,0,0,1,84.72,82Z"/><path d="M100.14,74.28a20.93,20.93,0,0,0-37.56-9.37l-4.76-7.54L84.64,14.86A7.74,7.74,0,0,0,84.91,7,7.87,7.87,0,0,0,78,2.83h0a2,2,0,0,0-1.69.94L50.16,45.22,24,3.77a2,2,0,0,0-1.69-.94h0A7.87,7.87,0,0,0,15.41,7a7.69,7.69,0,0,0,.27,7.87L42.49,57.37l-4.75,7.54A20.93,20.93,0,0,0,.18,74.28,20.26,20.26,0,0,0,5,90.34a21,21,0,0,0,15.52,7.24h.36a21,21,0,0,0,17.79-9.85,2.35,2.35,0,0,0,.19-.25l11.33-18,11.33,18a1.37,1.37,0,0,0,.18.24,21,21,0,0,0,17.79,9.86h.36a21,21,0,0,0,15.52-7.24A20.27,20.27,0,0,0,100.14,74.28ZM79,7a3.88,3.88,0,0,1,2.38,1.9,3.78,3.78,0,0,1-.13,3.84L55.46,53.62,52.52,49ZM35.63,85.05a2.43,2.43,0,0,0-.24.32A17,17,0,0,1,8,87.73,16.34,16.34,0,0,1,4.15,74.8a16.91,16.91,0,0,1,31.78-5.2,2,2,0,0,0,1.69,1.09,2.05,2.05,0,0,0,1.79-.93l5.45-8.64,2.93,4.65Zm56.68,2.67a17,17,0,0,1-27.39-2.35,1.39,1.39,0,0,0-.23-.31L19.06,12.73a3.78,3.78,0,0,1-.13-3.84A3.86,3.86,0,0,1,21.31,7l39.6,62.77a2,2,0,0,0,1.78.93,2,2,0,0,0,1.69-1.09,16.92,16.92,0,0,1,31.79,5.2A16.28,16.28,0,0,1,92.31,87.72Z"/></svg>