<svg viewBox="0 0 160 120" xmlns="http://www.w3.org/2000/svg"><g fill="#fff"><path d="m114.5 25.46-33.77-8.14a3.09 3.09 0 0 0 -1.45 0l-33.79 8.13a3 3 0 0 0 -2.3 2.88v37.2c0 11.45 7.13 22.25 18.6 28.19l16.8 8.71a3.09 3.09 0 0 0 2.82 0l16.8-8.71c11.47-5.94 18.6-16.74 18.6-28.19v-37.2a3 3 0 0 0 -2.31-2.87zm-1.69 40.07c0 10-6.3 19.39-16.44 24.64l-16.37 8.49-16.37-8.49c-10.14-5.25-16.44-14.69-16.44-24.64v-36.37l32.81-7.91 32.81 7.91z"/><path d="m59.17 55.94a2 2 0 0 0 4 0 2.71 2.71 0 1 1 5.41 0 2 2 0 0 0 4 0 2.71 2.71 0 1 1 5.42 0v21.27a6.73 6.73 0 0 0 13.45 0v-1.76a2 2 0 0 0 -4 0v1.76a2.73 2.73 0 0 1 -5.45 0v-21.27a2.71 2.71 0 0 1 5.42 0 2 2 0 1 0 4 0 2.71 2.71 0 1 1 5.41 0 2 2 0 0 0 4 0 20.83 20.83 0 1 0 -41.66 0zm20.83-16.84a16.86 16.86 0 0 1 15.5 10.27 6.84 6.84 0 0 0 -1.37-.14 6.69 6.69 0 0 0 -4.71 1.93 6.71 6.71 0 0 0 -9.42 0 6.71 6.71 0 0 0 -9.42 0 6.69 6.69 0 0 0 -4.71-1.93 6.84 6.84 0 0 0 -1.37.14 16.86 16.86 0 0 1 15.5-10.27z"/></g></svg>