<svg viewBox="0 0 160 120" xmlns="http://www.w3.org/2000/svg"><g fill="#fff"><path d="m133.49 73.84a4.34 4.34 0 0 0 -3.24-1.45h-2.47l.42-4.67a2 2 0 0 0 -2-2.18h-18.8v-34.68a10.41 10.41 0 0 0 -10.4-10.4h-68a3.64 3.64 0 0 0 -3.63 3.63v47.6a10.42 10.42 0 0 0 10.44 10.41h19.74l-1.91 8h-6.7a2 2 0 0 0 0 4h38.93a2 2 0 0 0 0-4h-7.36l-1.92-8h21.11l1.58 15.64a2 2 0 0 0 2 1.8h22.22a2 2 0 0 0 2-1.82l.27-3h3a4.32 4.32 0 0 0 4.23-3.88l1.54-13.62a4.35 4.35 0 0 0 -1.05-3.38zm-75.74 16.25 1.92-8h12.81l1.92 8zm40.48-24.55a2 2 0 0 0 -2 2.2l1.06 10.36h-61.48a6.42 6.42 0 0 1 -6.41-6.41v-47.23h67.6a6.41 6.41 0 0 1 6.41 6.4v34.68zm23.45 30h-18.6l-2.64-26h23.56zm7.38-5.15a.34.34 0 0 1 -.34.3h-2.59l1.29-14.3h2.83a.32.32 0 0 1 .26.12.29.29 0 0 1 .08.26z"/><path d="m112.72 59.54a2 2 0 0 0 4 0c0-1.12.43-1.6 1.41-2.58a7 7 0 0 0 0-10.83c-1-1-1.41-1.46-1.41-2.59s.43-1.6 1.41-2.58a7.14 7.14 0 0 0 2.59-5.42 2 2 0 1 0 -4 0c0 1.13-.44 1.61-1.42 2.59a7 7 0 0 0 0 10.83c1 1 1.42 1.46 1.42 2.59s-.44 1.6-1.42 2.58a7.12 7.12 0 0 0 -2.58 5.41z"/><path d="m89.72 45.54h-49a2 2 0 0 0 0 4h49a2 2 0 0 0 0-4z"/><path d="m89.72 54.54h-49a2 2 0 0 0 0 4h49a2 2 0 0 0 0-4z"/><path d="m73.72 63.54h-33a2 2 0 0 0 0 4h33a2 2 0 0 0 0-4z"/><path d="m40.72 37.57a2 2 0 1 0 -2-2 2 2 0 0 0 2 2z"/><path d="m46.72 37.57a2 2 0 1 0 -2-2 2 2 0 0 0 2 2z"/><path d="m52.72 37.57a2 2 0 1 0 -2-2 2 2 0 0 0 2 2z"/></g></svg>