<svg viewBox="0 0 160 120" xmlns="http://www.w3.org/2000/svg"><g fill="#fff"><path d="m120 36.2h-3.68v-7a2 2 0 0 0 -1.89-2c-5.5-.3-11.21-1.9-16.73-3.44-5.73-1.61-11.66-3.26-17.6-3.59a2 2 0 0 0 -.48 0c-5.85.35-11.69 2-17.34 3.56s-11.23 3.14-16.73 3.44a2 2 0 0 0 -1.89 2v7h-9.86a3.82 3.82 0 0 0 -3.8 3.83v49.84a10 10 0 0 0 10 10h86.2a3.82 3.82 0 0 0 3.8-3.84v-49.8a10 10 0 0 0 -10-10zm-7.67-5.2v51.56a93.13 93.13 0 0 1 -14.62-3.27 94.12 94.12 0 0 0 -15.71-3.44v-51.53a93.25 93.25 0 0 1 14.63 3.27 94 94 0 0 0 15.7 3.41zm-32.23 48.72a64.54 64.54 0 0 1 12.64 2.36 51.57 51.57 0 0 1 -12.74 1.79 51.56 51.56 0 0 1 -12.73-1.79 63 63 0 0 1 12.83-2.36zm-32.43-48.72a94 94 0 0 0 15.7-3.44 93.25 93.25 0 0 1 14.63-3.23v51.54a93.11 93.11 0 0 0 -15.71 3.43 90.93 90.93 0 0 1 -14.62 3.27zm78.33 64.84h-86a6 6 0 0 1 -6-6v-49.64h9.68v44.54a2 2 0 0 0 2 2h.1a70.86 70.86 0 0 0 14.78-2.8c5 2.29 13 3.93 19.45 3.93s14.51-1.64 19.46-3.94a71.58 71.58 0 0 0 14.76 2.8h.11a2 2 0 0 0 1.38-.55 2 2 0 0 0 .62-1.45v-44.53h3.66a6 6 0 0 1 6 6z"/><path d="m88.87 36.19c2.57.6 5.21 1.33 7.76 2.05s5.27 1.47 7.93 2.09a2.3 2.3 0 0 0 .45.05 2 2 0 0 0 .45-4c-2.57-.6-5.21-1.33-7.76-2s-5.27-1.47-7.93-2.09a2 2 0 0 0 -.9 3.9z"/><path d="m88.87 44.75c2.57.6 5.21 1.34 7.76 2s5.27 1.48 7.93 2.09a1.74 1.74 0 0 0 .44.16 2 2 0 0 0 .45-4c-2.57-.6-5.21-1.34-7.76-2s-5.27-1.47-7.93-2.09a2 2 0 1 0 -.9 3.89z"/><path d="m88.87 53.32c2.57.6 5.21 1.34 7.76 2s5.27 1.47 7.93 2.09a1.73 1.73 0 0 0 .45 0 2 2 0 0 0 .45-3.95c-2.57-.59-5.21-1.33-7.76-2s-5.27-1.48-7.93-2.1a2 2 0 0 0 -.9 3.9z"/><path d="m88.87 61.89c2.57.59 5.21 1.33 7.76 2s5.27 1.48 7.93 2.1a2.3 2.3 0 0 0 .45 0 2 2 0 0 0 .45-3.95c-2.57-.6-5.21-1.34-7.76-2.05s-5.27-1.38-7.93-1.99a2 2 0 1 0 -.9 3.9z"/><path d="m88.87 70.45c2.57.6 5.21 1.34 7.76 2s5.27 1.47 7.93 2.09a1.73 1.73 0 0 0 .45 0 2 2 0 0 0 .45-3.94c-2.57-.6-5.21-1.34-7.76-2s-5.27-1.48-7.93-2.1a2 2 0 1 0 -.9 3.9z"/><path d="m55 40.39a1.73 1.73 0 0 0 .45 0c2.66-.62 5.35-1.37 7.94-2.09s5.18-1.46 7.75-2a2 2 0 1 0 -.9-3.9c-2.66.62-5.34 1.37-7.93 2.09s-5.19 1.46-7.76 2.06a2 2 0 0 0 .45 3.84z"/><path d="m55 49a2.3 2.3 0 0 0 .45-.05c2.66-.62 5.35-1.37 7.94-2.1s5.18-1.45 7.75-2.05a2 2 0 1 0 -.9-3.89c-2.66.61-5.34 1.36-7.93 2.09s-5.19 1.45-7.76 2a2 2 0 0 0 .45 4z"/><path d="m55 57.53a1.74 1.74 0 0 0 .45-.06c2.66-.61 5.34-1.36 7.93-2.09s5.19-1.45 7.76-2.05a2 2 0 1 0 -.9-3.9c-2.66.62-5.35 1.37-7.94 2.1s-5.19 1.45-7.75 2a2 2 0 0 0 .45 4z"/><path d="m55 66.09a1.73 1.73 0 0 0 .45 0c2.66-.62 5.34-1.37 7.93-2.09s5.19-1.46 7.76-2.06a2 2 0 1 0 -.9-3.89c-2.66.62-5.35 1.37-7.94 2.09s-5.19 1.46-7.75 2a2 2 0 0 0 .45 4z"/><path d="m71.13 70.46a2 2 0 0 0 -.9-3.9c-2.66.62-5.34 1.37-7.94 2.1s-5.18 1.45-7.75 2a2 2 0 0 0 .45 4 2.3 2.3 0 0 0 .45 0c2.66-.62 5.34-1.37 7.93-2.1s5.19-1.5 7.76-2.1z"/></g></svg>