<svg fill="none" height="203" viewBox="0 0 898 203" width="898" xmlns="http://www.w3.org/2000/svg" xmlns:xlink="http://www.w3.org/1999/xlink"><clipPath id="a"><path d="m0 0h898v203h-898z"/></clipPath><g clip-path="url(#a)"><path d="m0 0h898v203h-898z" fill="#fff"/><g stroke="#d1d1d1" stroke-dasharray="3 3" stroke-miterlimit="16" stroke-width=".5"><path d="m105.915.118353c-.8.160788-1.545.479854-2.201.922987l.14.20715c-.637.43076-1.187.9838-1.615 1.6249l-.208-.1388c-.439.65752-.755 1.40394-.914 2.20533l.245.04868c-.073.37053-.112.75344-.112 1.14517v1.50832h-.25v3.01661h.25v3.0167h-.25v3.0166h.25v3.0167h-.25v3.0166h.25v3.0167h-.25v3.0167h.25v3.0166h-.25v3.0167h.25v3.0166h-.25v3.0167h.25v3.0166h-.25v3.0167h.25v3.0166h-.25v3.0167h.25v3.0166h-.25v3.0167h.25v3.0166h-.25v3.0167h.25v3.0166h-.25v3.0167h.25v3.0166h-.25v3.0167h.25v3.0166h-.25v3.0166h.25v3.0167h-.25v3.0167h.25v3.0166h-.25v3.0166h.25v3.0167h-.25v3.0164h.25v3.017h-.25v3.017h.25v3.016h-.25v3.017h.25v3.016h-.25v3.017h.25v3.017h-.25v3.016h.25v3.017h-.25v3.017h.25v3.016h-.25v3.017h.25v3.017h-.25v3.016h.25v3.017h-.25v3.017h.25v3.016h-.25v3.017h.25v3.017h-.25v3.016h.25v3.017h-.25v3.016h.25v3.017h-.25v3.017h.25v3.016h-.25v3.017h.25v1.509c0 .44.03.863.088 1.268l-.247.036c.132.92.405 1.752.797 2.476l.22-.119c.414.762.964 1.397 1.622 1.883l-.148.201c.688.507 1.49.859 2.38 1.032l.047-.245c.4.078.818.118 1.253.118h1.51v.25h3.02v-.25h3.019v.25h3.02v-.25h3.02v.25h3.02v-.25h3.02v.25h3.02v-.25h3.02v.25h3.019v-.25h3.02v.25h3.02v-.25h3.02v.25h3.02v-.25h3.02v.25h3.019v-.25h3.02v.25h3.02v-.25h3.02v.25h3.02v-.25h3.02v.25h3.02v-.25h1.509c.392 0 .775-.039 1.145-.113l.049.245c.8-.161 1.545-.48 2.201-.923l-.14-.207c.638-.431 1.188-.984 1.616-1.625l.208.138c.439-.657.755-1.404.914-2.205l-.246-.049c.074-.37.113-.753.113-1.145v-1.5h.25v-3h-.25v-3h.25v-3.001h-.25v-3h.25v-3h-.25v-3h.25v-3h-.25v-3.001h.25v-3h-.25v-3h.25v-3h-.25v-3h.25v-3.001h-.25v-3h.25v-3h-.25v-3h.25v-3h-.25v-3.001h.25v-3h-.25v-3h.25v-3h-.25v-3.001h.25v-3h-.25v-3h.25v-3h-.25v-3h.25v-3.0006h-.25v-3.0002h.25v-3.0003h-.25v-3.0002h.25v-3.0002h-.25v-3.0002h.25v-3.0002h-.25v-3.0002h.25v-3.0002h-.25v-3.0003h.25v-3.0002h-.25v-3.0002h.25v-3.0002h-.25v-3.0002h.25v-3.0002h-.25v-3.0002h.25v-3.0002h-.25v-3.0003h.25v-3.0002h-.25v-1.5001c0-.3409.073-.6699.204-.9709l.229.0994c.239-.5495.69-1.0027 1.237-1.2428l-.101-.229c.301-.1321.63-.2068.971-.2068h1.719v.25h3.436v-.25h3.436v.25h3.437v-.25h1.718c.341 0 .67.0747.971.2068l-.1.229c.547.2401.998.6933 1.236 1.2428l.23-.0994c.13.301.204.63.204.9709v1.5001h-.25v3.0003h.25v3.0002h-.25v3.0002h.25v3.0002h-.25v3.0002h.25v3.0002h-.25v3.0002h.25v3.0002h-.25v3.0003h.25v3.0002h-.25v3.0002h.25v3.0002h-.25v3.0002h.25v3.0002h-.25v3.0002h.25v3.0003h-.25v3.0002h.25v3.0002h-.25v3.0006h.25v3h-.25v3h.25v3h-.25v3h.25v3.001h-.25v3h.25v3h-.25v3h.25v3.001h-.25v3h.25v3h-.25v3h.25v3h-.25v3.001h.25v3h-.25v3h.25v3h-.25v3h.25v3.001h-.25v3h.25v3h-.25v3h.25v3.001h-.25v3h.25v3h-.25v3h.25v1.5c0 .392.039.775.112 1.145l-.245.049c.159.801.475 1.548.914 2.205l.208-.138c.428.641.978 1.194 1.615 1.625l-.14.207c.656.443 1.401.762 2.201.923l.05-.245c.37.074.753.113 1.144.113h1.475v.25h2.949v-.25h2.95v.25h2.949v-.25h2.95v.25h2.95v-.25h2.949v.25h2.95v-.25h2.949v.25h2.95v-.25h2.949v.25h2.95v-.25h2.949v.25h2.95v-.25h2.95v.25h2.949v-.25h1.475c.391 0 .774-.039 1.144-.113l.05.245c.8-.161 1.545-.48 2.201-.923l-.14-.207c.637-.431 1.187-.984 1.615-1.625l.208.138c.439-.657.755-1.404.914-2.205l-.245-.049c.073-.37.112-.753.112-1.145v-1.5h.25v-3h-.25v-3h.25v-3.001h-.25v-3h.25v-3h-.25v-3h.25v-3h-.25v-3.001h.25v-3h-.25v-3h.25v-3h-.25v-3h.25v-3.001h-.25v-3h.25v-3h-.25v-3h.25v-3h-.25v-3.001h.25v-3h-.25v-3h.25v-3h-.25v-3.001h.25v-3h-.25v-3h.25v-3h-.25v-3h.25v-3.0006h-.25v-3.0002h.25v-3.0003h-.25v-3.0002h.25v-3.0002h-.25v-3.0002h.25v-3.0002h-.25v-3.0002h.25v-3.0002h-.25v-3.0003h.25v-3.0002h-.25v-3.0002h.25v-3.0002h-.25v-3.0002h.25v-3.0002h-.25v-3.0002h.25v-3.0002h-.25v-3.0003h.25v-3.0002h-.25v-1.5001c0-.3409.074-.6699.204-.9709l.23.0994c.238-.5495.689-1.0027 1.236-1.2428l-.1-.229c.301-.1321.63-.2068.971-.2068h1.737v.25h3.475v-.25h3.474v.25h3.475v-.25h1.737c.341 0 .671.0747.972.2068l-.101.229c.547.2401.998.6933 1.236 1.2428l.23-.0994c.13.301.204.63.204.9709v1.5001h-.25v3.0003h.25v3.0002h-.25v3.0002h.25v3.0002h-.25v3.0002h.25v3.0002h-.25v3.0002h.25v3.0002h-.25v3.0003h.25v3.0002h-.25v3.0002h.25v3.0002h-.25v3.0002h.25v3.0002h-.25v3.0002h.25v3.0003h-.25v3.0002h.25v3.0002h-.25v3.0006h.25v3h-.25v3h.25v3h-.25v3h.25v3.001h-.25v3h.25v3h-.25v3h.25v3.001h-.25v3h.25v3h-.25v3h.25v3h-.25v3.001h.25v3h-.25v3h.25v3h-.25v3h.25v3.001h-.25v3h.25v3h-.25v3h.25v3.001h-.25v3h.25v3h-.25v3h.25v1.5c0 .392.039.775.112 1.145l-.245.049c.159.801.475 1.548.914 2.205l.208-.138c.428.641.978 1.194 1.615 1.625l-.14.207c.656.443 1.401.762 2.202.923l.049-.245c.37.074.753.113 1.144.113h1.517v.25h3.034v-.25h3.034v.25h3.033v-.25h3.034v.25h3.034v-.25h3.033v.25h3.034v-.25h3.034v.25h3.034v-.25h3.033v.25h3.034v-.25h3.034v.25h3.034v-.25h3.033v.25h3.034v-.25h3.034v.25h3.033v-.25h3.034v.25h3.034v-.25h3.034v.25h3.033v-.25h1.517c.392 0 .774-.039 1.145-.113l.049.245c.8-.161 1.545-.48 2.201-.923l-.14-.207c.638-.431 1.188-.984 1.616-1.625l.208.138c.438-.657.754-1.404.913-2.205l-.245-.049c.074-.37.112-.753.112-1.145v-1.51h.25v-3.021h-.25v-3.021h.25v-3.021h-.25v-3.021h.25v-3.021h-.25v-3.02h.25v-3.021h-.25v-3.021h.25v-3.021h-.25v-3.021h.25v-3.021h-.25v-3.021h.25v-3.021h-.25v-3.021h.25v-3.02h-.25v-3.021h.25v-3.021h-.25v-3.021h.25v-3.021h-.25v-3.021h.25v-3.021h-.25v-3.021h.25v-3.02h-.25v-3.021h.25v-3.021h-.25v-3.021h.25v-3.021h-.25v-3.0209h.25v-3.0209h-.25v-3.0208h.25v-3.0209h-.25v-3.0209h.25v-3.0209h-.25v-3.0209h.25v-3.0209h-.25v-3.0208h.25v-3.0209h-.25v-3.0209h.25v-3.0209h-.25v-3.0209h.25v-3.0208h-.25v-3.0209h.25v-3.0209h-.25v-3.0209h.25v-3.0208h-.25v-3.0209h.25v-3.0209h-.25v-3.0209h.25v-3.0208h-.25v-1.5105-.0062c.013-.4924.017-.9804.012-1.464l.25-.0022c-.009-.9988-.053-1.9788-.131-2.9389l-.249.0202c-.08-.9883-.197-1.9552-.349-2.8994l.247-.0397c-.158-.9845-.355-1.9449-.588-2.8797l-.243.0605c-.239-.9592-.518-1.8911-.834-2.7941l.236-.0827c-.329-.9387-.699-1.8468-1.108-2.7228l-.226.1058c-.416-.8914-.873-1.7488-1.369-2.5707l.214-.1292c-.511-.8469-1.064-1.6566-1.657-2.4272l-.198.1524c-.595-.77353-1.23-1.50719-1.905-2.19913l.179-.17448c-.685-.7028-1.409-1.36308-2.172-1.97885l-.157.19453c-.753-.60752-1.543-1.17131-2.369-1.68944l.133-.21179c-.824-.51683-1.684-.98864-2.577-1.41354l-.107.22575c-.866-.41226-1.765-.78002-2.694-1.1015l.081-.23626c-.912-.31573-1.854-.58714-2.824-.812597l-.057.243507c-.93-.21635-1.887-.390091-2.868-.519699l.032-.247848c-.954-.125979-1.931-.2105515-2.93-.2523887l-.01.2497807c-.482-.020177-.969-.030345-1.461-.030345h-1.486v-.25h-2.972v.25h-2.972v-.25h-2.972v.25h-2.972v-.25h-2.972v.25h-2.972v-.25h-2.972v.25h-2.972v-.25h-2.972v.25h-2.972v-.25h-2.972v.25h-2.972v-.25h-2.972v.25h-2.972v-.25h-2.972v.25h-2.972v-.25h-2.972v.25h-2.972v-.25h-2.972v.25h-2.972v-.25h-2.972v.25h-2.972v-.25h-2.972v.25h-2.972v-.25h-2.972v.25h-2.972v-.25h-2.972v.25h-2.972v-.25h-2.972v.25h-2.972v-.25h-2.972v.25h-2.972v-.25h-2.972v.25h-2.972v-.25h-2.972v.25h-2.972v-.25h-2.972v.25h-2.972v-.25h-2.972v.25h-2.972v-.25h-2.972v.25h-2.972v-.25h-2.972v.25h-2.972v-.25h-2.972v.25h-2.972v-.25h-2.972v.25h-2.972v-.25h-2.972v.25h-2.972v-.25h-2.972v.25h-2.972v-.25h-2.972v.25h-2.972v-.25h-2.972v.25h-2.972v-.25h-2.972v.25h-2.972v-.25h-2.972v.25h-2.972v-.25h-2.972v.25h-2.972v-.25h-2.972v.25h-2.972v-.25h-2.972v.25h-2.972v-.25h-2.972v.25h-2.972v-.25h-2.972v.25h-2.972v-.25h-2.972v.25h-2.972v-.25h-2.972v.25h-1.486c-.391 0-.774.039066-1.144.113454z"/><path d="m399.975.0299169c-1.005.041004-1.987.1239601-2.946.2476481l.032.247945c-.988.127483-1.951.298529-2.887.51172l-.055-.243755c-.977.222515-1.925.490635-2.844.802835l.081.2367c-.937.31842-1.843.68303-2.716 1.09214l-.106-.22637c-.9.42214-1.767.89132-2.598 1.40578l.131.21257c-.833.51616-1.631 1.0783-2.391 1.68463l-.156-.19544c-.771.61457-1.503 1.27411-2.196 1.97675l.178.17554c-.682.69148-1.325 1.42525-1.928 2.19949l-.198-.1536c-.6.7706-1.161 1.5809-1.682 2.429l.213.1308c-.504.8223-.971 1.6807-1.397 2.5738l-.226-.1077c-.419.8764-.799 1.7856-1.141 2.7261l.235.0853c-.328.9041-.62 1.8377-.874 2.7993l-.242-.0639c-.247.9362-.46 1.8986-.635 2.8859l.246.0439c-.169.9466-.304 1.9167-.405 2.9089l-.249-.0252c-.097.9635-.163 1.9476-.195 2.9513l.25.008c-.016.4861-.024.9769-.024 1.4722v1.5042h-.25v3.0085h.25v3.0084h-.25v3.0085h.25v3.0085h-.25v3.0085h.25v3.0084h-.25v3.0085h.25v3.0085h-.25v3.0084h.25v3.0085h-.25v3.0085h.25v3.0084h-.25v3.0085h.25v3.0085h-.25v3.0084h.25v3.0085h-.25v3.0085h.25v3.0084h-.25v3.0085h.25v3.0085h-.25v3.0084h.25v3.0085h-.25v3.0083h.25v3.009h-.25v3.008h.25v3.009h-.25v3.008h.25v3.009h-.25v3.008h.25v3.008h-.25v3.009h.25v3.008h-.25v3.009h.25v3.008h-.25v3.009h.25v3.008h-.25v3.009h.25v3.008h-.25v3.009h.25v3.008h-.25v3.009h.25v1.504c0 .495.008.986.024 1.472l-.25.008c.032 1.004.098 1.988.195 2.951l.249-.025c.101.992.236 1.962.405 2.909l-.246.044c.175.987.388 1.95.635 2.886l.242-.064c.254.962.546 1.895.874 2.799l-.235.086c.342.94.722 1.849 1.141 2.726l.226-.108c.426.893.893 1.751 1.397 2.574l-.213.131c.521.848 1.082 1.658 1.682 2.429l.198-.154c.603.774 1.246 1.508 1.928 2.199l-.178.176c.693.703 1.425 1.362 2.196 1.977l.156-.196c.76.607 1.558 1.169 2.391 1.685l-.131.212c.831.515 1.698.984 2.598 1.406l.106-.226c.873.409 1.779.774 2.716 1.092l-.081.237c.919.312 1.867.58 2.844.803l.055-.244c.936.213 1.899.384 2.887.512l-.032.247c.959.124 1.941.207 2.946.248l.01-.25c.485.02.975.03 1.47.03h1.501v.25h3.002v-.25h3.002v.25h3.003v-.25h3.002v.25h3.002v-.25h3.002v.25h3.003v-.25h3.002v.25h3.002v-.25h3.002v.25h3.003v-.25h3.002v.25h3.002v-.25h3.003v.25h3.002v-.25h3.002v.25h3.002v-.25h3.003v.25h3.002v-.25h3.002v.25h3.002v-.25h3.003v.25h3.002v-.25h3.002v.25h3.002v-.25h3.003v.25h3.002v-.25h3.002v.25h3.003v-.25h3.002v.25h3.002v-.25h3.002v.25h3.003v-.25h3.002v.25h3.002v-.25h3.002v.25h3.003v-.25h3.002v.25h3.002v-.25h1.501c.495 0 .985-.01 1.47-.03l.01.25c1.005-.041 1.987-.124 2.946-.248l-.032-.247c.988-.128 1.951-.299 2.887-.512l.055.244c.977-.223 1.925-.491 2.844-.803l-.081-.237c.937-.318 1.843-.683 2.716-1.092l.106.226c.901-.422 1.767-.891 2.598-1.406l-.131-.212c.833-.516 1.631-1.078 2.391-1.685l.156.196c.771-.615 1.503-1.274 2.196-1.977l-.178-.176c.682-.691 1.325-1.425 1.928-2.199l.198.154c.6-.771 1.161-1.581 1.682-2.429l-.213-.131c.505-.823.971-1.681 1.397-2.574l.226.108c.419-.877.799-1.786 1.141-2.727l-.235-.085c.328-.904.62-1.837.874-2.799l.242.064c.247-.936.46-1.899.635-2.886l-.246-.044c.169-.947.304-1.917.405-2.909l.249.025c.097-.963.163-1.947.195-2.951l-.25-.008c.016-.486.024-.977.024-1.472v-1.504h.25v-3.009h-.25v-3.008h.25v-3.009h-.25v-3.008h.25v-3.009h-.25v-3.008h.25v-3.009h-.25v-3.008h.25v-3.009h-.25v-3.008h.25v-3.009h-.25v-3.008h.25v-3.008h-.25v-3.009h.25v-3.008h-.25v-3.009h.25v-3.008h-.25v-3.009h.25v-3.0083h-.25v-3.0085h.25v-3.0084h-.25v-3.0085h.25v-3.0085h-.25v-3.0084h.25v-3.0085h-.25v-3.0085h.25v-3.0084h-.25v-3.0085h.25v-3.0085h-.25v-3.0084h.25v-3.0085h-.25v-3.0085h.25v-3.0084h-.25v-3.0085h.25v-3.0085h-.25v-3.0085h.25v-3.0084h-.25v-3.0085h.25v-3.0085h-.25v-3.0084h.25v-3.0085h-.25v-1.5042c0-.4947-.008-.985-.024-1.4708l.25-.0082c-.033-1.0023-.099-1.9856-.198-2.9489l-.249.0255c-.102-.9907-.238-1.9598-.409-2.9062l.246-.0443c-.178-.9856-.392-1.9469-.641-2.8826l-.242.0644c-.256-.9597-.55-1.8919-.88-2.7953l.235-.0859c-.343-.9383-.726-1.8461-1.146-2.7217l-.225.1082c-.428-.8911-.896-1.7482-1.402-2.5697l.213-.1311c-.521-.8464-1.082-1.6556-1.683-2.4257l-.197.1538c-.603-.77325-1.246-1.50658-1.928-2.1981l.178-.17545c-.692-.70239-1.423-1.36218-2.192-1.9774l-.156.19523c-.759-.60698-1.555-1.17016-2.387-1.68759l.132-.2123c-.83-.5159-1.695-.98674-2.594-1.41064l-.106.22611c-.872-.41101-1.776-.77757-2.711-1.09788l.081-.23651c-.918-.31422-1.865-.58426-2.84-.808478l-.056.243648c-.935-.214909-1.896-.387445-2.883-.516095l.032-.247904c-.958-.124862-1.94-.2086666-2.944-.2501016l-.011.2497876c-.484-.019966-.973-.030027-1.468-.030027h-1.501v-.25h-3.002v.25h-3.002v-.25h-3.003v.25h-3.002v-.25h-3.002v.25h-3.002v-.25h-3.003v.25h-3.002v-.25h-3.002v.25h-3.002v-.25h-3.003v.25h-3.002v-.25h-3.002v.25h-3.002v-.25h-3.003v.25h-3.002v-.25h-3.002v.25h-3.003v-.25h-3.002v.25h-3.002v-.25h-3.002v.25h-3.003v-.25h-3.002v.25h-3.002v-.25h-3.002v.25h-3.003v-.25h-3.002v.25h-3.002v-.25h-3.003v.25h-3.002v-.25h-3.002v.25h-3.002v-.25h-3.003v.25h-3.002v-.25h-3.002v.25h-3.002v-.25h-3.003v.25h-3.002v-.25h-3.002v.25h-1.501c-.495 0-.985.009951-1.47.029709zm70.596 145.1390831c-.239.549-.691 1.003-1.239 1.243l.101.229c-.302.131-.631.206-.972.206h-1.721v-.25h-3.442v.25h-3.443v-.25h-3.442v.25h-1.721c-.341 0-.67-.075-.972-.206l.101-.229c-.548-.24-1-.694-1.239-1.243l-.229.1c-.131-.302-.205-.631-.205-.972v-1.477h.25v-2.954h-.25v-2.954h.25v-2.955h-.25v-2.954h.25v-2.954h-.25v-2.954h.25v-2.954h-.25v-2.954h.25v-2.954h-.25v-2.954h.25v-2.955h-.25v-2.954h.25v-2.954h-.25v-2.954h.25v-2.9541h-.25v-2.9542h.25v-2.9541h-.25v-2.9541h.25v-2.9542h-.25v-2.9541h.25v-2.9541h-.25v-2.9542h.25v-2.9541h-.25v-2.9541h.25v-2.9542h-.25v-2.9541h.25v-2.9541h-.25v-2.9542h.25v-2.9541h-.25v-2.9541h.25v-2.9541h-.25v-2.9542h.25v-2.9541h-.25v-1.4771c0-.3412.074-.6705.205-.9717l.229.0996c.239-.5495.691-1.0025 1.239-1.2425l-.101-.229c.302-.1319.631-.2065.972-.2065h1.721v.25h3.442v-.25h3.443v.25h3.442v-.25h1.721c.341 0 .67.0746.972.2065l-.101.229c.548.24 1 .693 1.239 1.2425l.229-.0996c.131.3012.205.6305.205.9717v1.4771h-.25v2.9541h.25v2.9542h-.25v2.9541h.25v2.9541h-.25v2.9542h.25v2.9541h-.25v2.9541h.25v2.9542h-.25v2.9541h.25v2.9541h-.25v2.9541h.25v2.9542h-.25v2.9541h.25v2.9541h-.25v2.9542h.25v2.9541h-.25v2.9541h.25v2.9542h-.25v2.9541h.25v2.954h-.25v2.954h.25v2.954h-.25v2.955h.25v2.954h-.25v2.954h.25v2.954h-.25v2.954h.25v2.954h-.25v2.954h.25v2.954h-.25v2.955h.25v2.954h-.25v2.954h.25v1.477c0 .341-.074.67-.205.972z"/><path d="m593.975.0299168c-1.005.041004-1.987.1239602-2.946.2476472l.032.247946c-.988.127483-1.951.298529-2.887.51172l-.055-.243755c-.977.222515-1.925.490635-2.844.802835l.081.2367c-.937.31842-1.843.68303-2.716 1.09214l-.106-.22637c-.901.42214-1.767.89132-2.598 1.40578l.131.21257c-.833.51616-1.631 1.07831-2.391 1.68463l-.156-.19544c-.771.61458-1.503 1.27411-2.196 1.97676l.178.17553c-.682.69149-1.325 1.42526-1.928 2.19959l-.198-.1537c-.6.7706-1.161 1.5809-1.682 2.429l.213.1308c-.505.8223-.971 1.6808-1.397 2.5738l-.226-.1077c-.419.8764-.799 1.7856-1.141 2.7261l.235.0853c-.328.9042-.62 1.8377-.874 2.7993l-.242-.0639c-.247.9362-.46 1.8986-.635 2.8859l.246.0439c-.169.9466-.304 1.9167-.405 2.9089l-.249-.0252c-.097.9635-.163 1.9476-.195 2.9513l.25.008c-.016.4861-.024.9769-.024 1.4722v1.5042h-.25v3.0085h.25v3.0084h-.25v3.0085h.25v3.0085h-.25v3.0085h.25v3.0084h-.25v3.0085h.25v3.0085h-.25v3.0084h.25v3.0085h-.25v3.0085h.25v3.0084h-.25v3.0085h.25v3.0085h-.25v3.0084h.25v3.0085h-.25v3.0085h.25v3.0084h-.25v3.0085h.25v3.0085h-.25v3.0084h.25v3.0085h-.25v3.0083h.25v3.009h-.25v3.008h.25v3.009h-.25v3.008h.25v3.009h-.25v3.008h.25v3.008h-.25v3.009h.25v3.008h-.25v3.009h.25v3.008h-.25v3.009h.25v3.008h-.25v3.009h.25v3.008h-.25v3.009h.25v3.008h-.25v3.009h.25v1.504c0 .495.008.986.024 1.472l-.25.008c.032 1.004.098 1.988.195 2.951l.249-.025c.101.992.236 1.962.405 2.909l-.246.044c.175.987.388 1.95.635 2.886l.242-.064c.254.962.546 1.895.874 2.799l-.235.085c.342.941.722 1.85 1.141 2.727l.226-.108c.426.893.892 1.751 1.397 2.574l-.213.131c.521.848 1.082 1.658 1.682 2.429l.198-.154c.603.774 1.246 1.508 1.928 2.199l-.178.176c.693.703 1.425 1.362 2.196 1.977l.156-.196c.76.607 1.558 1.169 2.391 1.685l-.131.212c.831.515 1.697.984 2.598 1.406l.106-.226c.873.409 1.779.774 2.716 1.092l-.081.237c.919.312 1.867.58 2.844.803l.055-.244c.936.213 1.899.384 2.887.512l-.032.247c.959.124 1.941.207 2.946.248l.01-.25c.485.02.975.03 1.47.03h1.501v.25h3.002v-.25h3.002v.25h3.003v-.25h3.002v.25h3.002v-.25h3.002v.25h3.003v-.25h3.002v.25h3.002v-.25h3.002v.25h3.003v-.25h3.002v.25h3.002v-.25h3.002v.25h3.003v-.25h3.002v.25h3.002v-.25h3.003v.25h3.002v-.25h3.002v.25h3.002v-.25h3.003v.25h3.002v-.25h3.002v.25h3.002v-.25h3.003v.25h3.002v-.25h3.002v.25h3.002v-.25h3.003v.25h3.002v-.25h3.002v.25h3.003v-.25h3.002v.25h3.002v-.25h3.002v.25h3.003v-.25h3.002v.25h3.002v-.25h1.501c.495 0 .985-.01 1.469-.03l.011.25c1.005-.041 1.987-.124 2.946-.248l-.032-.247c.988-.128 1.951-.299 2.887-.512l.055.244c.977-.223 1.925-.491 2.844-.803l-.081-.237c.937-.318 1.843-.683 2.716-1.092l.106.226c.9-.422 1.767-.891 2.598-1.406l-.131-.212c.833-.516 1.631-1.078 2.391-1.685l.156.196c.771-.615 1.503-1.274 2.196-1.977l-.178-.176c.682-.691 1.325-1.425 1.928-2.199l.198.154c.6-.771 1.161-1.581 1.682-2.429l-.213-.131c.504-.823.971-1.681 1.397-2.574l.226.108c.419-.877.799-1.786 1.141-2.726l-.235-.086c.328-.904.62-1.837.874-2.799l.242.064c.247-.936.46-1.899.635-2.886l-.246-.044c.169-.947.304-1.917.405-2.909l.249.025c.097-.963.163-1.947.195-2.951l-.25-.008c.016-.486.024-.977.024-1.472v-1.504h.25v-3.009h-.25v-3.008h.25v-3.009h-.25v-3.008h.25v-3.009h-.25v-3.008h.25v-3.009h-.25v-3.008h.25v-3.009h-.25v-3.008h.25v-3.009h-.25v-3.008h.25v-3.008h-.25v-3.009h.25v-3.008h-.25v-3.009h.25v-3.008h-.25v-3.009h.25v-3.0083h-.25v-3.0085h.25v-3.0084h-.25v-3.0085h.25v-3.0085h-.25v-3.0084h.25v-3.0085h-.25v-3.0085h.25v-3.0084h-.25v-3.0085h.25v-3.0085h-.25v-3.0084h.25v-3.0085h-.25v-3.0085h.25v-3.0084h-.25v-3.0085h.25v-3.0085h-.25v-3.0085h.25v-3.0084h-.25v-3.0085h.25v-3.0085h-.25v-3.0084h.25v-3.0085h-.25v-1.5042c0-.4947-.008-.9851-.024-1.4708l.25-.0082c-.033-1.0023-.099-1.9856-.198-2.949l-.249.0256c-.102-.9907-.238-1.9598-.409-2.9062l.246-.0443c-.178-.9856-.392-1.9469-.641-2.8826l-.242.0644c-.256-.9597-.55-1.8919-.88-2.7953l.235-.0859c-.343-.9384-.726-1.8461-1.146-2.7217l-.226.1082c-.427-.8911-.895-1.7482-1.401-2.5698l.213-.131c-.521-.8464-1.082-1.6556-1.683-2.4257l-.197.1538c-.603-.77326-1.246-1.50658-1.928-2.19811l.178-.17546c-.692-.70238-1.423-1.36217-2.192-1.97739l-.156.19524c-.759-.60698-1.555-1.17016-2.387-1.6876l.132-.21229c-.83-.5159-1.695-.98674-2.594-1.41065l-.106.22612c-.872-.41101-1.776-.77757-2.711-1.09788l.081-.23651c-.918-.31422-1.865-.58426-2.84-.80848l-.056.24365c-.935-.21491-1.896-.387446-2.884-.516096l.033-.247903c-.958-.124862-1.94-.2086669-2.944-.2501019l-.011.2497879c-.484-.019966-.973-.030027-1.468-.030027h-1.501v-.25h-3.002v.25h-3.002v-.25h-3.003v.25h-3.002v-.25h-3.002v.25h-3.002v-.25h-3.003v.25h-3.002v-.25h-3.002v.25h-3.003v-.25h-3.002v.25h-3.002v-.25h-3.002v.25h-3.003v-.25h-3.002v.25h-3.002v-.25h-3.002v.25h-3.003v-.25h-3.002v.25h-3.002v-.25h-3.002v.25h-3.003v-.25h-3.002v.25h-3.002v-.25h-3.003v.25h-3.002v-.25h-3.002v.25h-3.002v-.25h-3.003v.25h-3.002v-.25h-3.002v.25h-3.002v-.25h-3.003v.25h-3.002v-.25h-3.002v.25h-3.002v-.25h-3.003v.25h-3.002v-.25h-3.002v.25h-1.501c-.495 0-.985.009951-1.47.029709zm70.596 145.1390832c-.239.549-.691 1.003-1.239 1.243l.101.229c-.302.131-.631.206-.972.206h-1.721v-.25h-3.442v.25h-3.443v-.25h-3.442v.25h-1.721c-.341 0-.67-.075-.972-.206l.101-.229c-.548-.24-1-.694-1.239-1.243l-.229.1c-.131-.302-.205-.631-.205-.972v-1.477h.25v-2.954h-.25v-2.954h.25v-2.955h-.25v-2.954h.25v-2.954h-.25v-2.954h.25v-2.954h-.25v-2.954h.25v-2.954h-.25v-2.954h.25v-2.955h-.25v-2.954h.25v-2.954h-.25v-2.954h.25v-2.9541h-.25v-2.9542h.25v-2.9541h-.25v-2.9541h.25v-2.9542h-.25v-2.9541h.25v-2.9541h-.25v-2.9542h.25v-2.9541h-.25v-2.9541h.25v-2.9542h-.25v-2.9541h.25v-2.9541h-.25v-2.9542h.25v-2.9541h-.25v-2.9541h.25v-2.9541h-.25v-2.9542h.25v-2.9541h-.25v-1.4771c0-.3412.074-.6705.205-.9717l.229.0996c.239-.5495.691-1.0025 1.239-1.2425l-.101-.229c.302-.1319.631-.2065.972-.2065h1.721v.25h3.442v-.25h3.443v.25h3.442v-.25h1.721c.341 0 .67.0746.972.2065l-.101.229c.548.24 1 .693 1.239 1.2425l.229-.0996c.131.3012.205.6305.205.9717v1.4771h-.25v2.9541h.25v2.9542h-.25v2.9541h.25v2.9541h-.25v2.9542h.25v2.9541h-.25v2.9541h.25v2.9542h-.25v2.9541h.25v2.9541h-.25v2.9541h.25v2.9542h-.25v2.9541h.25v2.9541h-.25v2.9542h.25v2.9541h-.25v2.9541h.25v2.9542h-.25v2.9541h.25v2.954h-.25v2.954h.25v2.954h-.25v2.955h.25v2.954h-.25v2.954h.25v2.954h-.25v2.954h.25v2.954h-.25v2.954h.25v2.954h-.25v2.955h.25v2.954h-.25v2.954h.25v1.477c0 .341-.074.67-.205.972z"/><path d="m761.398 69.878.001-.0001-.004-.0134c-.035-.142-.062-.2849-.082-.4288l-.248.035c-.043-.3077-.058-.6153-.063-.923l.25-.0039c-.002-.152-.002-.3043-.002-.4589v-1.5296h-.25v-3.0593h.25v-3.0592h-.25v-3.0592h.25v-3.0592h-.25v-3.0592h.25v-3.0593h-.25v-3.0592h.25v-3.0592h-.25v-3.0592h.25v-3.0592h-.25v-3.0593h.25v-3.0592h-.25v-3.0592h.25v-3.0592h-.25v-3.0592h.25v-3.0592h-.25v-3.0593h.25v-3.0592h-.25v-3.0592h.25v-1.52961c0-.443.029-.86884.084-1.27585l-.247-.03391c.127-.92792.391-1.76553.777-2.49308l.221.11725c.408-.76797.955-1.40501 1.622-1.889l-.147-.20231c.685-.496994 1.491-.84128 2.4-1.008208l.046.245889c.399-.07327.82-.111271 1.261-.111271h1.518v-.25h3.036v.25h3.036v-.25h3.036v.25h3.037v-.25h3.036v.25h3.036v-.25h3.036v.25h3.036v-.25h3.036v.25h3.036v-.25h3.037v.25h3.036v-.25h3.036v.25h3.036v-.25h3.036v.25h3.036v-.25h3.036v.25h3.037v-.25h3.036v.25h3.036v-.25h3.036v.25h1.518c.392 0 .775.039038 1.145.113374l.049-.245113c.801.160683 1.547.47956 2.203.922449l-.14.20723c.638.43065 1.189.98361 1.617 1.62463l.208-.13891c.439.65762.756 1.40421.915 2.20581l-.245.04873c.073.37065.112.7537.112 1.14557v1.50011h.25v3.00022h-.25v3.0002h.25v3.0002h-.25v3.0002h.25v3.0002h-.25v3.0003h.25v3.0002h-.25v3.0002h.25v3.0002h-.25v3.0002h.25v3.0002h-.25v3.0002h.25v3.0003h-.25v3.0002h.25v3.0002h-.25v3.0002h.25v3.0002h-.25v3.0002h.25v3.0002h-.25v3.0003h.25v3.0002h-.25v3.0002h.25v3.0002h-.25v3.0002h.25v3.0002h-.25v3.0002h.25v3.0002h-.25v3.0003h.25v3.0002h-.25v3.0002h.25v2.9997h-.25v3.001h.25v3h-.25v3h.25v3h-.25v3.001h.25v3h-.25v3h.25v3h-.25v3h.25v3.001h-.25v3h.25v3h-.25v3h.25v3h-.25v1.501c0 .341.074.67.205.971l.229-.1c.239.55.69 1.003 1.238 1.243l-.101.229c.301.132.631.207.972.207h1.719v-.25h3.44v.25h3.439v-.25h3.439v.25h1.719c.342 0 .671-.075.972-.207l-.1-.229c.547-.24.998-.693 1.237-1.243l.229.1c.131-.301.205-.63.205-.971v-1.501h-.25v-3h.25v-3h-.25v-3h.25v-3h-.25v-3.001h.25v-3h-.25v-3h.25v-3h-.25v-3h.25v-3.001h-.25v-3h.25v-3h-.25v-3h.25v-3h-.25v-3.0007h.25v-3.0002h-.25v-3.0002h.25v-3.0003h-.25v-3.0002h.25v-3.0002h-.25v-3.0002h.25v-3.0002h-.25v-3.0002h.25v-3.0002h-.25v-3.0002h.25v-3.0003h-.25v-3.0002h.25v-3.0002h-.25v-3.0002h.25v-3.0002h-.25v-3.0002h.25v-3.0002h-.25v-3.0003h.25v-3.0002h-.25v-3.0002h.25v-3.0002h-.25v-3.0002h.25v-3.0002h-.25v-3.0002h.25v-3.0003h-.25v-3.0002h.25v-3.0002h-.25v-3.0002h.25v-3.0002h-.25v-3.00022h.25v-1.50011c0-.39187.039-.77492.112-1.14557l-.245-.04874c.16-.8016.476-1.54818.915-2.2058l.208.13891c.429-.64102.979-1.19398 1.617-1.62463l-.14-.20723c.657-.442889 1.402-.761766 2.203-.922449l.049.245113c.371-.074336.753-.113374 1.145-.113374h1.518v-.25h3.036v.25h3.037v-.25h3.036v.25h3.036v-.25h3.036v.25h3.036v-.25h3.036v.25h3.036v-.25h3.037v.25h3.036v-.25h3.036v.25h3.036v-.25h3.036v.25h3.036v-.25h3.036v.25h3.037v-.25h3.036v.25h3.036v-.25h3.036v.25h3.036v-.25h3.036v.25h1.518c.44 0 .863.041041 1.266.120195l.048-.245326c.895.175513 1.705.532037 2.406 1.044061l-.148.20192c.667.48661 1.234 1.12146 1.679 1.88309l.216-.1261c.421.72068.735 1.5482.925 2.46358l-.245.05082c.084.40465.143.82768.176 1.26742v1.52043h.25v3.05921h-.25v3.0592h.25v3.0592h-.25v3.0593h.25v3.0592h-.25v3.0592h.25v3.0592h-.25v3.0592h.25v3.0593h-.25v3.0592h.25v3.0592h-.25v3.0592h.25v3.0592h-.25v3.0593h.25v3.0592h-.25v3.0592h.25v3.0592h-.25v3.0592h.25v3.0592h-.25v1.5297c0 .1546 0 .3069-.002.4588l.25.004c-.005.3076-.02.6153-.063.923l-.248-.035c-.02.1439-.047.2868-.082.4288l-.001-.0001-.002.0136-.275 1.4342.246.047-.549 2.8684-.245-.0469-.549 2.8684.246.0469-.549 2.8685-.245-.047-.549 2.8685.246.0469-.548 2.8685-.246-.047-.548 2.8685.245.0469-.548 2.8684-.246-.0469-.548 2.8684.245.047-.548 2.8684-.246-.0469-.548 2.8684.245.0474-.548 2.868-.246-.047-.548 2.868.245.047-.548 2.869-.246-.047-.548 2.868.245.047-.548 2.869-.246-.047-.548 2.868.246.047-.549 2.869-.245-.047-.549 2.868.246.047-.549 2.869-.245-.047-.549 2.868.246.047-.549 2.868-.245-.047-.549 2.869.246.047-.549 2.868-.245-.047-.549 2.869.246.047-.549 2.868-.245-.047-.549 2.869.246.047-.549 2.868-.245-.047-.549 2.869.246.046-.548 2.869-.246-.047-.548 2.868.245.047-.548 2.869-.246-.047-.548 2.868.245.047-.548 2.869-.246-.047-.274 1.434c-.097.508-.2 1.01-.307 1.505l.244.053c-.223 1.025-.468 2.023-.739 2.989l-.24-.067c-.282 1.008-.592 1.981-.932 2.915l.235.085c-.36.992-.755 1.941-1.187 2.842l-.225-.108c-.452.943-.946 1.831-1.483 2.661l.209.136c-.571.881-1.192 1.697-1.869 2.442l-.185-.168c-.688.756-1.433 1.437-2.24 2.037l.149.2c-.817.607-1.697 1.131-2.646 1.566l-.104-.227c-.89.408-1.842.737-2.861.981l.058.243c-.956.228-1.968.382-3.042.457l-.017-.249c-.495.034-1.004.052-1.526.052h-1.492v.25h-2.985v-.25h-2.986v.25h-2.985v-.25h-2.985v.25h-2.985v-.25h-2.985v.25h-2.985v-.25h-2.985v.25h-2.985v-.25h-2.985v.25h-2.985v-.25h-2.985v.25h-2.985v-.25h-2.985v.25h-2.985v-.25h-2.986v.25h-2.985v-.25h-2.985v.25h-2.985v-.25h-2.985v.25h-2.985v-.25h-2.985v.25h-2.985v-.25h-2.985v.25h-2.985v-.25h-2.985v.25h-2.985v-.25h-2.985v.25h-2.985v-.25h-2.985v.25h-2.986v-.25h-2.985v.25h-2.985v-.25h-1.492c-.522 0-1.031-.018-1.526-.052l-.017.249c-1.074-.075-2.087-.229-3.042-.457l.058-.243c-1.019-.244-1.971-.573-2.861-.981l-.104.227c-.949-.435-1.83-.959-2.646-1.566l.149-.2c-.807-.6-1.552-1.281-2.24-2.037l-.185.168c-.677-.745-1.299-1.561-1.87-2.442l.21-.136c-.538-.83-1.031-1.718-1.483-2.661l-.225.108c-.432-.901-.827-1.85-1.187-2.842l.235-.085c-.34-.934-.65-1.907-.932-2.915l-.24.067c-.271-.966-.516-1.964-.739-2.989l.244-.053c-.107-.495-.21-.997-.307-1.505l-.274-1.434-.246.047-.548-2.869.245-.047-.548-2.868-.246.047-.548-2.869.245-.047-.548-2.868-.246.047-.548-2.869.246-.046-.549-2.869-.246.047-.548-2.868.246-.047-.549-2.869-.245.047-.549-2.868.246-.047-.549-2.869-.245.047-.549-2.868.246-.047-.549-2.869-.245.047-.549-2.868.246-.047-.549-2.868-.245.047-.549-2.869.246-.047-.549-2.868-.245.047-.549-2.869.246-.047-.548-2.868-.246.047-.548-2.869.245-.047-.548-2.868-.246.047-.548-2.869.245-.047-.548-2.868-.246.047-.548-2.868.245-.0474-.548-2.8684-.246.0469-.548-2.8684.245-.047-.548-2.8684-.246.0469-.548-2.8684.245-.0469-.548-2.8685-.246.047-.548-2.8685.245-.0469-.548-2.8685-.246.047-.548-2.8684.246-.047-.549-2.8684-.245.0469-.549-2.8684.246-.047z"/></g></g></svg>