<svg id="Layer_1" data-name="Layer 1" xmlns="http://www.w3.org/2000/svg" viewBox="0 0 107.02 94.33"><path d="M89.43,9.06H56.23a1,1,0,0,0-.87.5L38.77,38.31a1,1,0,0,0,0,1L55.36,68.06a1,1,0,0,0,.87.5h33.2a1,1,0,0,0,.86-.5l16.6-28.75a1,1,0,0,0,0-1L90.29,9.56A1,1,0,0,0,89.43,9.06Z" fill="#3ea66f"/><path d="M87.1,0h-83A4.13,4.13,0,0,0,0,4.12v63A12.92,12.92,0,0,0,12.9,80.07H36.54L34,90.33H24.75a2,2,0,0,0,0,4h50.5a2,2,0,0,0,0-4H65.09L62.6,80.07H95.88A4.13,4.13,0,0,0,100,76v-63A12.92,12.92,0,0,0,87.1,0Zm-83,4h83A8.91,8.91,0,0,1,96,12.9V57.24a2,2,0,0,0-.84-.19H4.84a2,2,0,0,0-.84.19V4.12A.12.12,0,0,1,4.12,4ZM61,90.33H38.16l2.49-10.26H58.49Zm34.9-14.26h-83A8.92,8.92,0,0,1,4,67.16v-6.3a2,2,0,0,0,.84.19H95.16a2,2,0,0,0,.84-.19V76A.12.12,0,0,1,95.88,76.07Z"/><path d="M33.68,49.4a2,2,0,1,0,3.41-2.09L28.36,33,37.12,17.8a2,2,0,0,0-3.47-2L24.3,32a2,2,0,0,0,0,2Z"/><path d="M63.57,50.06a2,2,0,0,0,2.75-.66l9.35-15.34a2,2,0,0,0,0-2L66.35,15.8a2,2,0,0,0-3.47,2L71.64,33,62.91,47.31A2,2,0,0,0,63.57,50.06Z"/><path d="M40.41,49.54a1.93,1.93,0,0,0,1,.28,2,2,0,0,0,1.72-1L60.31,19.56a2,2,0,0,0-3.45-2L39.69,46.81A2,2,0,0,0,40.41,49.54Z"/><path d="M54.78,66.56H45.22a2,2,0,0,0,0,4h9.56a2,2,0,0,0,0-4Z"/></svg>