<svg viewBox="0 0 160 120" xmlns="http://www.w3.org/2000/svg"><g fill="#fff"><path d="m121.75 52.14a7.14 7.14 0 1 0 -10.62 0 2 2 0 0 0 -2 2v3.7h-58.02v-3.7a2 2 0 0 0 -2-2h-.41a7.15 7.15 0 1 0 -10.59 0 2 2 0 0 0 -1.72 2v46.5a3 3 0 0 0 3 3h8.76a3 3 0 0 0 3-3v-1.74h57.85v1.74a3 3 0 0 0 3 3h8.76a3 3 0 0 0 3-3v-46.5a2 2 0 0 0 -2.01-2zm-5.36-7.89a3.14 3.14 0 1 1 -3.14 3.13 3.13 3.13 0 0 1 3.14-3.13zm-7.39 40.66h-6.32v-23.07h6.32zm-31 0h-6.25v-23.07h6.32zm4-23.07h6.32v23.07h-6.25zm-14.25 23.07h-6.32v-23.07h6.32zm0 4v6h-6.32v-6zm4 0h6.32v6h-6.32zm10.32 0h6.32v6h-6.32zm10.32 0h6.32v6h-6.32zm0-4v-23.07h6.32v23.07zm-35-23.07v23.07h-6.28v-23.07zm-14-17.59a3.14 3.14 0 1 1 -3.14 3.13 3.13 3.13 0 0 1 3.14-3.13zm3.72 55.36h-6.72v-43.47h6.72zm4-10.7h6.32v6h-6.32zm51.6 6v-6h6.29v6zm17 4.71h-6.71v-2.62s0-.08 0-.13v-10s0-.09 0-.14v-30.59h6.72z"/><path d="m59.87 40.92a2 2 0 0 0 2-2v-3.77c3-3.21 9.24-5.42 16.2-5.78v5.63a5.19 5.19 0 0 0 -2.23-.51c-3.68 0-6.25 2.86-6.25 7 0 6.82 8.75 10.63 9.67 11a1.88 1.88 0 0 0 .81.18 2.1 2.1 0 0 0 .43 0 2.35 2.35 0 0 0 .35-.11c.71-.29 9.7-4.12 9.7-11 0-4.1-2.57-7-6.25-7a5.19 5.19 0 0 0 -2.23.5v-5.69c7 .36 13.21 2.57 16.2 5.78v3.77a2 2 0 0 0 4 0v-4.51a2 2 0 0 0 -.44-1.25c-3.53-4.43-11.15-7.4-19.76-7.8v-7a2 2 0 0 0 -4 0v7c-8.61.4-16.23 3.37-19.76 7.8a2 2 0 0 0 -.44 1.25v4.51a2 2 0 0 0 2 2zm24.43-2.46c2.09 0 2.25 2.26 2.25 3 0 3.22-4.16 5.88-6.48 7-2.32-1.12-6.48-3.78-6.48-7 0-.7.16-3 2.25-3 1.23 0 2.15 2 2.32 2.55a2 2 0 0 0 1.9 1.39 2 2 0 0 0 1.94-1.4c.15-.52 1.07-2.54 2.3-2.54z"/></g></svg>