<svg id="Layer_1" data-name="Layer 1" xmlns="http://www.w3.org/2000/svg" viewBox="0 0 125.34 82.91"><rect x="44.79" width="72.78" height="25.81" rx="12.91" fill="#6651a1"/><rect x="7.78" y="57.1" width="72.78" height="25.81" rx="12.91" fill="#6651a1"/><path d="M14.67,35.51A2,2,0,0,0,16.06,35L28.73,22.74A2,2,0,1,0,26,19.86l-9.28,9V8.86h84a8,8,0,0,1,8,8v18.7a2,2,0,1,0,4,0V16.86a12,12,0,0,0-12-12h-84a4,4,0,0,0-4,4v20L3.39,19.86A2,2,0,1,0,.61,22.74L13.28,35A2,2,0,0,0,14.67,35.51Z"/><path d="M124.73,58.12,112.06,45.91a2,2,0,0,0-2.78,0L96.61,58.12A2,2,0,0,0,99.39,61l9.28-9V74h-84a8,8,0,0,1-8-8V47.35a2,2,0,0,0-4,0V66a12,12,0,0,0,12,12h84a4,4,0,0,0,4-4v-22L122,61a2,2,0,0,0,2.83,0A2,2,0,0,0,124.73,58.12Z"/><rect x="41.3" y="37.46" width="8" height="8" rx="2"/><rect x="58.67" y="37.46" width="8" height="8" rx="2"/><rect x="76.04" y="37.46" width="8" height="8" rx="2"/></svg>