<svg viewBox="0 0 160 120" xmlns="http://www.w3.org/2000/svg"><path d="m123.28 55.62c.06-.85.09-1.68.09-2.5a36.63 36.63 0 0 0 -70.12-14.82 26 26 0 1 0 -6.33 51.2h.89v10a4 4 0 0 0 4 4h55a4 4 0 0 0 4-4v-10h11.3a17 17 0 0 0 1.17-33.88zm-51.64-3.62h15.28v4.5h-15.24zm-1.94 8.5h37.11v7.57l-19.64 7.27a4 4 0 0 0 -3.89-3.34h-7.93a4 4 0 0 0 -3.9 3.33l-19.64-7.26v-7.57zm13.58 19.5h-7.89v-4h7.88zm-31.47 19.5v-27.17l19.58 7.26v.41a4 4 0 0 0 4 4h7.93a4 4 0 0 0 4-4v-.45l19.58-7.26v15.2 12zm70.3-14h-11.3v-25a4 4 0 0 0 -4-4h-15.89v-4.56a3.94 3.94 0 0 0 -3.92-3.94h-15.36a4 4 0 0 0 -3.94 3.94v4.56h-15.89a4 4 0 0 0 -4 4v25h-.89a22 22 0 1 1 6.87-42.88 2 2 0 0 0 2.49-1.18 32.61 32.61 0 0 1 62.8 15.93 2 2 0 0 0 .53 1.63 2 2 0 0 0 1.59.62h.16.75a13 13 0 0 1 0 25.92z" fill="#fff"/></svg>