<svg viewBox="0 0 160 120" xmlns="http://www.w3.org/2000/svg"><g fill="#fff"><path d="m108.54 28.23h-3.54v-5.53a2 2 0 0 0 -4 0v5.53h-7.49v-5.53a2 2 0 0 0 -4 0v5.53h-7.51v-5.53a2 2 0 0 0 -4 0v5.53h-7.51v-5.53a2 2 0 0 0 -4 0v5.53h-7.49v-5.53a2 2 0 1 0 -4 0v5.53h-9.43a4.11 4.11 0 0 0 -4.11 4.1v57a10 10 0 0 0 10 10h63a4.11 4.11 0 0 0 4.11-4.1v-57a10 10 0 0 0 -10.03-10zm-63 4h9.46v5.54a2 2 0 0 0 4 0v-5.54h7.51v5.54a2 2 0 0 0 4 0v-5.54h7.49v5.54a2 2 0 1 0 4 0v-5.54h7.51v5.54a2 2 0 0 0 4 0v-5.54h7.49v5.54a2 2 0 0 0 4 0v-5.54h3.52a6 6 0 0 1 6 6v8h-69.06v-13.9a.11.11 0 0 1 .11-.1zm68.89 63.07h-63a6 6 0 0 1 -6-6v-39h69.08v45a.1.1 0 0 1 -.08 0z"/><path d="m95.16 60.44c-6.53 0-12.44 5.35-15.16 8.25-2.72-2.9-8.63-8.25-15.16-8.25a11.29 11.29 0 1 0 0 22.57c6.53 0 12.44-5.35 15.16-8.25 2.72 2.9 8.63 8.24 15.16 8.24a11.29 11.29 0 1 0 0-22.57zm-30.32 18.56a7.29 7.29 0 1 1 0-14.57c5.2 0 10.35 4.93 12.51 7.29-2.17 2.37-7.35 7.28-12.51 7.28zm30.32 0c-5.2 0-10.35-4.92-12.51-7.28 2.17-2.36 7.31-7.29 12.51-7.29a7.29 7.29 0 1 1 0 14.57z"/></g></svg>