<svg viewBox="0 0 16 16" xmlns="http://www.w3.org/2000/svg">
<style>
  path {
    fill: #000;
  }
  @media (prefers-color-scheme: dark) {
    path {
      fill: #fff;
    }
  }
</style>
<path d="M14.2386 2H0.384826C0.173172 2 0 2.17332 0 2.38515V13.3716C0 13.6316 0.163552 13.8049 0.394447 13.8049H4.57943C4.79109 13.8049 4.96426 13.6316 4.96426 13.4197V4.75383C4.96426 4.6768 5.0316 4.6094 5.10857 4.6094H5.97443C6.05139 4.6094 6.11874 4.6768 6.11874 4.75383V13.4197C6.11874 13.6316 6.29191 13.8049 6.50356 13.8049H9.47634C9.688 13.8049 9.86117 13.6316 9.86117 13.4197V4.75383C9.86117 4.6768 9.92851 4.6094 10.0055 4.6094H10.881C10.9579 4.6094 11.0253 4.6768 11.0253 4.75383V13.4197C11.0253 13.6316 11.1984 13.8049 11.4101 13.8049H15.6143C15.826 13.8049 15.9991 13.6316 15.9991 13.4197V3.93538C16.028 2.77993 15.3257 2 14.2386 2Z"/>
</svg>
