<svg viewBox="0 0 288 123" xmlns="http://www.w3.org/2000/svg"><path d="m-2-2h292v127h-292z" fill="#ee444e"/><path d="m104.35 42.15h-45.45a1.27 1.27 0 0 0 -1.27 1.26v36a1.3 1.3 0 0 0 1.3 1.42h13.73a1.27 1.27 0 0 0 1.26-1.26v-28.87h3.79v28.89a1.27 1.27 0 0 0 1.29 1.26h9.76a1.27 1.27 0 0 0 1.24-1.26v-28.89h3.82v28.89a1.27 1.27 0 0 0 1.26 1.26h13.8a1.27 1.27 0 0 0 1.26-1.26v-31.1c.08-3.78-2.22-6.34-5.79-6.34z" fill="#fff"/><path d="m104.35 42.15h-10.54v19.37a10.81 10.81 0 0 1 10.81-10.82h5.51v-2.21c.09-3.78-2.21-6.34-5.78-6.34z" fill="#fbd3d0"/><path d="m57.63 79.43a1.3 1.3 0 0 0 1.3 1.42h13.73a1.27 1.27 0 0 0 1.26-1.26v-18.07h-16.29z" fill="#070909"/><path d="m77.71 79.59a1.27 1.27 0 0 0 1.29 1.26h9.76a1.27 1.27 0 0 0 1.24-1.26v-28.89h-12.29z" fill="#fbd3d0"/><path d="m229 42.15h-13.78a1.27 1.27 0 0 0 -1.22 1.26v28.89h-3.79v-28.89a1.26 1.26 0 0 0 -1.26-1.26h-13.84a1.28 1.28 0 0 0 -1.3 1.42v12.6.42l3.85 20c.47 2.46 1.51 4.23 3.91 4.23h21c2.4 0 3.44-1.77 3.91-4.23l3.86-20.08v-.33-12.61a1.39 1.39 0 0 0 -1.34-1.42z" fill="#fff"/><path d="m226.48 76.62.83-4.32h-17.15v8.55h12.41c2.43 0 3.43-1.77 3.91-4.23z" fill="#070909"/><path d="m229 42.15h-13.78a1.27 1.27 0 0 0 -1.22 1.26v7.26h16.42v-7.1a1.39 1.39 0 0 0 -1.42-1.42z" fill="#070909"/><path d="m144.44 42.15h-24.78c-3.6 0-5.87 2.52-5.87 6.34v26c0 3.82 2.27 6.34 5.87 6.34h24.78c3.6 0 5.87-2.52 5.87-6.34v-26c0-3.78-2.31-6.34-5.87-6.34zm-10.44 8.55v21.63h-3.79v-21.63z" fill="#fff"/><path d="m113.79 72.33v2.18c0 3.82 2.27 6.34 5.87 6.34h10.51v-8.52z" fill="#fbd3d0"/><path d="m184.56 42.15h-24.78c-3.6 0-5.87 2.52-5.87 6.34v26c0 3.82 2.27 6.34 5.87 6.34h24.78c3.6 0 5.88-2.52 5.88-6.34v-26c0-3.78-2.28-6.34-5.88-6.34zm-10.48 8.55v21.63h-3.78v-21.63z" fill="#fff"/><path d="m170.3 50.7v-8.55h-10.52c-3.6 0-5.87 2.52-5.87 6.34v13h16.39z" fill="#d1b894"/><path d="m159.78 80.85h10.52v-8.52h-16.39v2.18c0 3.82 2.27 6.34 5.87 6.34z" fill="#fbd3d0"/><path d="m170.3 72.33v8.52h14.26c3.6 0 5.88-2.52 5.88-6.34v-2.18z" fill="#070909"/><path d="m184.56 42.15h-10.48v8.55h16.36v-2.21c0-3.78-2.28-6.34-5.88-6.34z" fill="#fbd3d0"/><path d="m57.63 50.7h16.29v10.81h-16.29z" fill="#fbd3d0"/><path d="m113.79 56.11h20.17v10.81h-20.17z" fill="#070909"/><path d="m130.17 72.33v8.52h14.27c3.6 0 5.87-2.52 5.87-6.34v-2.18z" fill="#d1b894"/><path d="m134 50.7v21.63h16.35v-10.81h-5.54a10.81 10.81 0 0 1 -10.81-10.82z" fill="#fbd3d0"/><path d="m77.71 72.33h12.28v-10.81z" fill="#d1b894"/><path d="m130.17 50.7v-8.55h-10.51c-3.6 0-5.87 2.52-5.87 6.34v7.62h16.38z" fill="#fbd3d0"/><path d="m164.72 50.7h5.57a0 0 0 0 1 0 0v10.82a0 0 0 0 1 0 0h-16.38a0 0 0 0 1 0 0 10.81 10.81 0 0 1 10.81-10.82z" fill="#070909"/><path d="m190.41 61.52h-16.33v10.81z" fill="#fbd3d0"/><path d="m229.38 61.52h-4.65a10.78 10.78 0 0 0 -10.73 10.78h13.36z" fill="#fbd3d0"/><path d="m194.8 61.5 15.36 10.8v-21.6h-16.35v5.47.42z" fill="#d1b894"/></svg>