<svg viewBox="0 0 288 123" xmlns="http://www.w3.org/2000/svg"><path d="m0 0h288v123h-288z" fill="#010101"/><path d="m110.23 48.58c0-3.81-2.28-6.35-5.87-6.35h-26.58v3.45h-3.45v-3.45h-3.42v3.42h-3.45v-3.42h-3.46v3.42h-3.44v-3.42h-1.67a1.27 1.27 0 0 0 -1.26 1.26v2.16h2.93v3.45h-2.93v30.43a1.29 1.29 0 0 0 1.31 1.41h5v-20.54h10.06v-9.16a.48.48 0 0 1 .49-.48h2.85a.48.48 0 0 1 .49.48v9.16h5.57v20.54h5.41a1.27 1.27 0 0 0 1.26-1.26v-28.44a.48.48 0 0 1 .48-.48h2.86a.47.47 0 0 1 .48.48v10.86h16.34z" fill="#fff"/><path d="m93.89 62.1v17.58a1.27 1.27 0 0 0 1.27 1.26h13.84a1.27 1.27 0 0 0 1.26-1.26v-17.58z" fill="#664fa4"/><path d="m144.48 42.23h-24.79c-3.59 0-5.88 2.54-5.88 6.35v26c0 3.81 2.29 6.35 5.88 6.35h24.79c3.59 0 5.88-2.54 5.88-6.35v-26c0-3.81-2.29-6.35-5.88-6.35zm-10.48 29.7a.48.48 0 0 1 -.49.48h-2.85a.48.48 0 0 1 -.49-.48v-20.69a.48.48 0 0 1 .49-.48h2.85a.48.48 0 0 1 .49.48z" fill="#fff"/><path d="m189.88 48.92-1.61-5.52a5.21 5.21 0 0 0 -.9-.56v6.08h-2l-1.95-6.69h-.56v6.69h-2l-1.86-6.69h-.56v6.69h-1.91v-6.69h-16.72c-3.58 0-5.87 2.54-5.87 6.35v26c0 3.81 2.29 6.35 5.87 6.35h24.8c3.59 0 5.88-2.54 5.88-6.35v-25.66zm-15.75 23a.48.48 0 0 1 -.49.48h-2.86a.48.48 0 0 1 -.48-.48v-20.68a.48.48 0 0 1 .48-.48h2.86a.48.48 0 0 1 .49.48z" fill="#fff"/><path d="m230.36 56.32a8.16 8.16 0 0 1 -8.16-8.16v-5.93h-6.93a1.26 1.26 0 0 0 -1.27 1.26v28.44a.48.48 0 0 1 -.49.48h-2.85a.47.47 0 0 1 -.48-.48v-28.44a1.27 1.27 0 0 0 -1.27-1.26h-13.78a1.28 1.28 0 0 0 -1.3 1.41v12.6a2.31 2.31 0 0 0 0 .37l3.84 20.1c.46 2.46 1.51 4.23 3.92 4.23h8.57v-2.71h2.74v2.71h.34v-2.71h2.76v2.71h.34v-2.71h2.75v2.71h.34v-2.71h2.75v2.71h.35v-2.7h2.75v1.47c.12-.16.23-.32.34-.5v-1h.45c0-.11.08-.23.11-.34h-.56v-2.72h1.15l.06-.34h-1.21v-2.41h1.67l3-15.79a1.43 1.43 0 0 0 0-.29z" fill="#fff"/><path d="m83.4 60.4v20.54h-19.51v-20.54z" fill="#f14249"/><rect fill="#010101" height="19.5" rx="9.75" width="19.5" x="63.89" y="50.76"/><path d="m72.02 60.91h1.22v1.22h.81v-1.22h1.22v-.81h-1.22v-1.22h-.81v1.22h-1.22z" fill="#fff"/><path d="m210.19 52.91v19.48h19.48z" fill="#36a56d"/><g fill="#010101"><path d="m150.27 53.33.1.05v-.59a.35.35 0 0 0 -.22.24.34.34 0 0 0 .12.3z"/><path d="m150.37 52.19v-.39h-.41-.36a2.85 2.85 0 0 0 .23.26.94.94 0 0 0 .54.13z"/><path d="m149.64 47.59a.37.37 0 0 0 .07-.16 2.64 2.64 0 0 0 -.08-.62c-.13-.45-.3-.89-.44-1.34 0-.08 0-.17 0-.26s.17.07.21.13a3.32 3.32 0 0 1 .63 1.54v.72a1.07 1.07 0 0 0 .22.37h.05v-.22a5.6 5.6 0 0 0 -1.3-3.69.54.54 0 0 0 0 .22c.14.35 0 .43-.32.49-.51.1-.54.17-.32.61l1 2.08c.11.07.21.09.28.13z"/><path d="m150.37 55.16-.07.07.07.1z"/><path d="m150.37 57.55v-.23a.27.27 0 0 0 -.06.12s.02.08.06.11z"/><path d="m137 47.88a11.91 11.91 0 0 0 .85 1 1 1 0 0 0 .44.28.65.65 0 0 0 .47-.1c.06 0 0-.25 0-.39s-.09-.16-.11-.24a.89.89 0 0 1 0-.23l.24.08.28.16a.83.83 0 0 0 .05-.35.93.93 0 0 0 -.2-.38c-.53-.54-1.06-1.06-1.6-1.59a.83.83 0 0 0 -.26-.1c0 .1-.09.22-.07.24s.29.21.42.33a1.27 1.27 0 0 1 .27.34v.25a.22.22 0 0 1 -.14 0 2.5 2.5 0 0 1 -.39-.23c-.12-.08-.23-.24-.37-.06a.56.56 0 0 0 -.1.4 1.55 1.55 0 0 0 .22.59z"/><path d="m142.12 42.69c.63.11.87.53 1 1.08a2.33 2.33 0 0 0 .52.83c.68.67 1.41 1.3 2.1 2 .48.46 1 .91 1.4 1.41a4.91 4.91 0 0 1 .88 2.31 1.75 1.75 0 0 0 1.11 1.15c.06 0 .12-.09.2-.15s0-.28-.12-.35a3.53 3.53 0 0 1 -1-2.35 3.17 3.17 0 0 0 -.89-1.62c-.76-.84-1.59-1.63-2.38-2.45-.27-.28-.48-.6-.74-.9a1.54 1.54 0 0 1 -.37-1.25 1 1 0 0 0 0-.25h-2.43c.25.21.4.49.72.54z"/><path d="m149.89 49.12a2.12 2.12 0 0 0 .48.93v-1.4h-.06a.49.49 0 0 0 -.42.47z"/><path d="m150.26 62s-.11.06-.1.09 0 0 0 .05h.19v-.14z"/><path d="m136.36 44.08c.59.29 1.16.62 1.74.93a.37.37 0 0 1 .12.13c.39 1.07 1.31 1.76 1.9 2.69a3.86 3.86 0 0 1 .73 2.15c0 .58.17 1.21-.28 1.72v.17c.45.5.64 1.25 1.38 1.47 0 0 .18-.14.17-.19a19.19 19.19 0 0 1 -.37-3.47 4.27 4.27 0 0 0 -.42-1.44 9.21 9.21 0 0 0 -2.3-3.06 3.64 3.64 0 0 1 -.43-.45.23.23 0 0 1 0-.23.21.21 0 0 1 .23 0 10.66 10.66 0 0 1 2.75 3.4 6.7 6.7 0 0 1 .69 3.55 2.33 2.33 0 0 0 1.36 2.39 8.2 8.2 0 0 0 2.43 1.1 3.32 3.32 0 0 0 1.33.06c.41-.08.74-.16 1.08.14a.27.27 0 0 0 .38 0 .16.16 0 0 0 0-.11c0-.08-.12-.22-.2-.32a.46.46 0 0 0 -.15-.09c-.53-.24-.54-.25-.12-.6.2-.17.21-.28 0-.38-.53-.23-.69-.21-1.07.23a.33.33 0 0 1 -.46.1.24.24 0 0 1 -.08-.06c-.5-.43-1.25-.46-1.63-1.06-.87.08-.78-.7-1-1.16a.47.47 0 0 1 0-.35.44.44 0 0 1 .25-.21.3.3 0 0 1 .21.12 3.43 3.43 0 0 1 .09.44s.1.11.12.1.17-.08.18-.14a1 1 0 0 0 -.39-1.2 3.26 3.26 0 0 1 -1.07-1.61.33.33 0 0 1 0-.29.39.39 0 0 1 .33-.05 1 1 0 0 1 .44.28 7.6 7.6 0 0 1 1 1.86 3.11 3.11 0 0 0 .74 1.51.82.82 0 0 1 .15.57.74.74 0 0 0 .4.66c.15.1.3.08.32-.13s.17-.35.42-.33a3.89 3.89 0 0 1 1.59.16h.24s0-.26 0-.31-.38-.29-.58-.42a5.75 5.75 0 0 1 -.54-.44c-.11-.1-.09-.39-.34-.24 0 0 0 .27.07.4s.14.13.17.21a.26.26 0 0 1 -.07.21.19.19 0 0 1 -.22 0 5.24 5.24 0 0 1 -.62-1 3.37 3.37 0 0 1 -.25-1.13 3.53 3.53 0 0 0 -1-2.25 14.2 14.2 0 0 0 -2.78-2.43c0 .27.16.42.32.59l1.51 1.51a.65.65 0 0 1 .06.21 1.15 1.15 0 0 1 -.26 0 .33.33 0 0 1 -.16-.07 9.53 9.53 0 0 1 -1.92-2.09c-.05-.08-.12-.14-.16-.21s.1-.13.14-.12a4.26 4.26 0 0 1 .47.15 10.62 10.62 0 0 0 -2-2.26 5.19 5.19 0 0 0 -2.13-1.23h-.14a.48.48 0 0 0 0 .17c.16.29.34.56.47.86.06.15-.08.35-.23.25s-.88.13-.88-.53c0-.05-.25-.13-.39-.15a2.4 2.4 0 0 1 -1.36-.66h-1.34a2.17 2.17 0 0 0 1.47 1s.12.11.11.12a.31.31 0 0 1 -.15.15.77.77 0 0 1 -.76 0c-.17-.12-.35-.22-.52-.35s-.29-.07-.36.08 0 .27.06.28c.31.11.29.44.44.62a.88.88 0 0 1 .31.7v.25a1.73 1.73 0 0 0 .55.39c.15 0 .16-.29 0-.61l-.09-.15-.23-.33c.17-.12.4-.25.53-.17zm4.6.73h.24a5.2 5.2 0 0 1 1.22 1.61.85.85 0 0 1 0 .17s0 .07-.05.07a.55.55 0 0 1 -.21-.12c-.42-.53-.83-1.07-1.24-1.61.02 0 .08-.07.08-.12zm-4-1.39s.1-.05.21-.09a7.72 7.72 0 0 1 .78.3c.08 0 .12.19.14.29a.44.44 0 0 1 -.22.11c-.4.06-.63-.26-.93-.45-.03-.01-.02-.12.06-.16z"/><path d="m150.37 60.09a9.27 9.27 0 0 0 -.92-.14c-.62-.06-1.26 0-1.89 0a4.86 4.86 0 0 0 -.54 0 10.43 10.43 0 0 1 -3.64-.43c-.14 0-.38-.08-.41 0-.27.46-.57.19-.83 0a5.94 5.94 0 0 1 -1.86-1.2c-.07-.1-.26-.12-.39-.14s-.42 0-.53-.07c-.61-.55-1.32-.23-2-.26-.07 0-.15.09-.22.14s.11.19.19.22a10.18 10.18 0 0 0 1.08.44 2 2 0 0 1 1.12.7.72.72 0 0 0 .25.24l2.8 1.16a5 5 0 0 0 .52.14c.32.1.59.14.62-.33 0-.26.22-.24.4-.21s.28.12.42.16a6.6 6.6 0 0 0 2.2.37 14.25 14.25 0 0 1 3.61.52z"/><path d="m144.56 42.11a5 5 0 0 0 .38 1 12.19 12.19 0 0 0 1 1.23 1.31 1.31 0 0 0 .36.21c0-.14 0-.27 0-.4a2 2 0 0 1 0-.24.82.82 0 0 1 .3.1c.19.14.28.2.31-.11a3.41 3.41 0 0 0 0-1.35 5.65 5.65 0 0 0 -2.22-.46z"/><path d="m136 48.94a4.74 4.74 0 0 0 -.5.15c-.26.12-.52.26-.77.4s-.18.45-.18.69c.27 0 .55 0 .61.35a.51.51 0 0 1 -.31.58c-.19.11-.36.25-.22.5a.43.43 0 0 0 .55.18c.17 0 .43 0 .54-.06a1 1 0 0 0 .21-.58c0-.38 0-.77 0-1.15a4 4 0 0 1 0-.6c.01-.15.07-.31.07-.46z"/><path d="m134.27 42.5a.74.74 0 0 0 0-.39h-.27v.6c.14-.04.25-.11.27-.21z"/><path d="m134.47 58.32c.06.06.14.15.21.16.63.06 1.25.12 1.87.16.09 0 .19-.14.28-.21a1.36 1.36 0 0 0 -.24-.24 9.61 9.61 0 0 0 -1.11-.56c-.33-.13-.7-.16-1-.27-.1 0-.16-.21-.24-.32.09-.06.2-.17.28-.16a3.19 3.19 0 0 1 .67.19 2.45 2.45 0 0 1 .52.34c.18.15.38.26.52 0 0-.08-.1-.32-.21-.41a3.78 3.78 0 0 0 -.63-.33.9.9 0 0 1 -.45-1.2.64.64 0 0 1 .08-.14 8.67 8.67 0 0 0 1.21-2.29c.06-.16.24-.29.27-.45a.69.69 0 0 1 .72-.63c.32 0 .35-.17.19-.48s-.19-.43-.31-.63-.14-.08-.22-.09-.13.07-.13.09c.09.74-.5 1.18-.78 1.75-.42.85-.93 1.66-1.42 2.47-.17.3-.35.59-.53.88v2a1 1 0 0 1 .45.37z"/><path d="m138 53a1 1 0 0 0 .72 1.11 5.8 5.8 0 0 0 1.2.39 9.52 9.52 0 0 1 2.59 1 15.63 15.63 0 0 0 2.07.87 7.45 7.45 0 0 0 3.54.27 5 5 0 0 1 1.44 0 3.19 3.19 0 0 0 .86-.24v-.41a7.93 7.93 0 0 0 -3.18.11 4 4 0 0 1 -2.52-.29 20.94 20.94 0 0 1 -3.87-2.09 5.07 5.07 0 0 1 -1.08-1 1 1 0 0 1 -.18-1.24.83.83 0 0 0 .06-.44c0-.2 0-.35-.32-.28a6.92 6.92 0 0 1 -.77.14 3.92 3.92 0 0 1 -.22.74 3.41 3.41 0 0 0 -.34 1.36z"/><path d="m134.61 53.47c.17-.22.34-.42.49-.64s.13-.29-.12-.28a.45.45 0 0 1 -.5-.28.38.38 0 0 0 -.48-.27v2.25z"/><path d="m134.86 59.54 2.75.23a1.1 1.1 0 0 0 .26-.06c-.06-.06-.14-.1-.16-.17-.14-.3-.4-.33-.68-.33h-.9v.06l-1.4-.18s-.14 0-.15.07a.5.5 0 0 0 .06.24.37.37 0 0 0 .22.14z"/><path d="m134.51 50.2a.72.72 0 0 1 -.51-.2v1a6.78 6.78 0 0 0 .51-.8z"/><path d="m142.59 61.55a1.48 1.48 0 0 1 -.52-.29 5.6 5.6 0 0 0 -1.71-.94 3.83 3.83 0 0 0 -.81-.33 1.26 1.26 0 0 0 -.43 0 1.2 1.2 0 0 1 .33.13 1.9 1.9 0 0 1 .4.35.25.25 0 0 1 0 .24s-.16.06-.23 0a21.13 21.13 0 0 0 -3.36-.51c-.76-.06-1.52-.17-2.28-.27v.69l.37.08c.33.08.75.12.73.64 0 .06.18.14.28.17a7.49 7.49 0 0 0 1.41.28 4.31 4.31 0 0 1 1.28.23h5.55l-.09-.18c-.14-.33-.21-.31-.92-.29z"/><path d="m134.11 55.16a.18.18 0 0 0 0-.16h-.11v.29z"/><path d="m137.83 50.36a4.55 4.55 0 0 0 .65.35 1.82 1.82 0 0 0 -.16-.5 2.8 2.8 0 0 0 -.45-.52c-.07-.06-.23-.12-.27-.08s-.16.23-.12.29a1.23 1.23 0 0 0 .35.46z"/><path d="m134.13 49.43a5.19 5.19 0 0 1 .57-.58c.19-.17.13-.32 0-.43a2.48 2.48 0 0 1 -.64-.52v1.73a.82.82 0 0 1 .07-.2z"/><path d="m136 54.78a1.31 1.31 0 0 0 -.41 1.22 1.26 1.26 0 0 0 1.12.61.27.27 0 0 0 .21-.12c.15-.45.51-.38.82-.29 1.26.36 2.51.74 3.77 1.13a1.9 1.9 0 0 1 .64.31 4.76 4.76 0 0 0 3.11.9c.48 0 .95.1 1.43.12a6.54 6.54 0 0 0 1.77.05 1.88 1.88 0 0 1 1.32.1 1.07 1.07 0 0 0 .53.07v-.67l-.7-.07c-.92-.08-1.84-.19-2.76-.28a6.45 6.45 0 0 1 -3.46-.33c-1.25-.58-2.47-1.23-3.69-1.87-.55-.29-1.07-.67-1.6-1a2.36 2.36 0 0 0 -2.1.12z"/><path d="m135.29 45.66h.24a.4.4 0 0 0 0-.15c-.15-.35-.43-.6-.46-1s-.55-.72-1-.94v1.43c.36.2.79.44 1.22.66z"/><path d="m205.05 59.48h-1.53v9.2l-9.09-9.09.55 2.85 7.39 7.39h-5.98l.29 1.53h8.37z"/></g><rect fill="#faad33" height="5.59" rx=".21" width="5.59" x="99.25" y="68.73"/><rect fill="#36a56d" height="5.59" rx="2.79" width="5.59" x="99.25" y="54.04"/><path d="m63.99 45.68h3.45v3.45h-3.45z"/><path d="m70.88 45.68h3.45v3.45h-3.45z"/><path d="m219.45 72.39h2.75v2.4h-2.75z" fill="#010101"/><path d="m222.54 75.14h2.75v2.75h-2.75z" fill="#010101"/><path d="m222.54 72.39h2.75v2.4h-2.75z" fill="#010101"/><path d="m219.45 75.14h2.75v2.75h-2.75z" fill="#010101"/><path d="m216.36 72.39h2.75v2.4h-2.75z" fill="#010101"/><path d="m210.19 74.8h2.74v-2.39h-2.26a.3.3 0 0 1 -.13 0h-.35z" fill="#010101"/><path d="m213.27 74.8h2.73v-2.41h-2.37a.27.27 0 0 1 -.13 0h-.25z" fill="#010101"/><path d="m216.36 75.14h2.75v2.75h-2.75z" fill="#010101"/><path d="m213.27 75.14h2.75v2.75h-2.75z" fill="#010101"/><path d="m210.19 75.14h2.75v2.75h-2.75z" fill="#010101"/><path d="m190.51 48.55v.37h-.63l-1.63-5.57a6.28 6.28 0 0 1 2.26 5.2zm-5.87-6.35h-1.18l2 6.72h2v-6.12a6.09 6.09 0 0 0 -2.82-.6zm-6.2 0h-1.91v6.72h1.91zm2.55 0h-2l2.01 6.72h2v-6.72z" fill="#010101"/><path d="m226.8 75.15-.3 1.56a10.35 10.35 0 0 1 -.29 1.19h-.57v-2.75zm-1.5 3.09h-2.75v2.76a3.29 3.29 0 0 0 2.71-1.22zm.34-5.84v2.41h1.23l.46-2.41zm0 5.84v1a5.63 5.63 0 0 0 .46-1z" fill="#010101"/><path d="m219.45 78.23h2.75v2.71h-2.75z" fill="#010101"/><path d="m216.36 78.23h2.75v2.71h-2.75z" fill="#010101"/><path d="m213.27 78.23h2.75v2.71h-2.75z" fill="#010101"/><path d="m210.19 78.23h2.75v2.71h-2.75z" fill="#010101"/><path d="m60.56 42.23h3.45v3.42h-3.45z"/><path d="m67.46 42.23h3.45v3.42h-3.45z"/><path d="m74.33 42.25h3.45v3.42h-3.45z"/><path d="m57.63 45.65h2.93v3.45h-2.93z"/><path d="m86.05 48.76h-8.27v30.35c0 1 .56 1.83 1.26 1.83h7z" fill="#fff"/><path d="m230.36 56.32v-12.68a1.28 1.28 0 0 0 -1.31-1.41h-6.85v5.93a8.16 8.16 0 0 0 8.16 8.16z" fill="#664fa4"/><path d="m144.44 81h37.44v-18.78h-37.44z" fill="#e44c2d"/><path d="m156.48 74.26h1.34v1.34h-1.34z" fill="#fff"/><path d="m156.48 70.91h1.34v1.34h-1.34z" fill="#fff"/><path d="m156.48 67.56h1.34v1.34h-1.34z" fill="#fff"/><path d="m153.13 74.26h1.34v1.34h-1.34z" fill="#fff"/><path d="m153.13 70.91h1.34v1.34h-1.34z" fill="#fff"/><path d="m153.13 67.56h1.34v1.34h-1.34z" fill="#fff"/><path d="m149.78 74.26h1.34v1.34h-1.34z" fill="#fff"/><path d="m149.78 70.91h1.34v1.34h-1.34z" fill="#fff"/><path d="m149.78 67.56h1.34v1.34h-1.34z" fill="#fff"/><path d="m153.92 55.49a2.3 2.3 0 0 1 .64.09c.1 0 .64.09.43-.42a.48.48 0 0 1 .29-.23c.41 0 .83.12 1.25.19.8.14 1.6.27 2.4.43.2 0 .43.21.53-.07 0-.08-.24-.29-.4-.39a.9.9 0 0 0 -.42-.16c-1.58-.19-3.13-.58-4.72-.72z" fill="#010101"/><path d="m157.27 42.89a1 1 0 0 0 -.12.49s.13.17.17.16a3.19 3.19 0 0 0 1-.44c.38-.35.74-.72 1.09-1.1a5.94 5.94 0 0 0 -1.64.29z" fill="#010101"/><path d="m166.82 42c-.19.2-.37.41-.57.6a1.25 1.25 0 0 1 -.47.25.8.8 0 0 1 -.34-.05 1.51 1.51 0 0 1 .18-.26c.14-.11.31-.19.44-.31a.61.61 0 0 0 .13-.22h-.54a2.11 2.11 0 0 1 -.35 0 11.22 11.22 0 0 1 -1.16 0l-.47-.06h-1.42a2.89 2.89 0 0 0 -1.77.86c-.19.23-.18.32.09.45s.19.21 0 .35a5 5 0 0 0 -1 1.81 1 1 0 0 0 -.07.15.85.85 0 0 0 .51 1.07 4.2 4.2 0 0 0 .93.37c.64.15 1.3.26 1.95.39a.52.52 0 0 1 .16.06c-.07 0-.13.1-.2.1a7.86 7.86 0 0 0 -2.6.26.57.57 0 0 1 -.26 0 4.18 4.18 0 0 0 -1.41-.1c-.16 0-.49-.14-.51-.26a2.23 2.23 0 0 0 -.38-1 .36.36 0 0 1 0-.35c.26-.2.61-.34.19-.72a.49.49 0 0 1 .14-.18c.13-.07.29-.09.41-.17a.25.25 0 0 0 .09-.23c0-.06-.11-.16-.16-.15-.35.06-.57-.15-.81-.33 0 0-.16.07-.25.12.39.54-.14 1-.19 1.44 0 .05-.07.1-.1.14a.44.44 0 0 1 -.08-.15 4.19 4.19 0 0 0 -.09-1 3.78 3.78 0 0 1 .27-2.37 5.71 5.71 0 0 0 -1.74 1.3 6 6 0 0 1 -.3.63.39.39 0 0 1 -.3.16 5.84 5.84 0 0 0 -.7 1.64.86.86 0 0 1 .27.33 1 1 0 0 0 .8.86c.17 0 .3.26.37.32a2.65 2.65 0 0 1 -.16.63.68.68 0 0 1 -.38-.07 1.89 1.89 0 0 1 -.97-1.25 6.08 6.08 0 0 0 0 .61v.57c.1.08.1.24.13.43a.52.52 0 0 0 .26.34 7.28 7.28 0 0 0 1 .44c.45.15.51.08.46-.39a1.71 1.71 0 0 1 0-.31h.33a.81.81 0 0 0 .72.3 1.4 1.4 0 0 1 .53.11 2 2 0 0 0 2.26-.33 1.56 1.56 0 0 1 .41-.15 4.79 4.79 0 0 1 2.32.08 11.85 11.85 0 0 0 2 .29 3 3 0 0 1 .88.2.32.32 0 0 1 .14.29.37.37 0 0 1 -.22.22 1.42 1.42 0 0 1 -.46 0 24.9 24.9 0 0 1 -3.92-.67c-.33-.09-.84-.37-.95 0s.47.47.82.54c1.13.23 2.25.46 3.38.64.69.11 1.39.13 2.08.21.93.1 1.86.25 2.79.33a2.87 2.87 0 0 1 1.61.46v-1.03a2.56 2.56 0 0 1 -1 .11c-.69-.09-1.38-.22-2.06-.36a1 1 0 0 1 -.38-.23.83.83 0 0 1 -.16-.21 1 1 0 0 1 .3-.11c1.09 0 2.19 0 3.29-.06v-.75c-.88 0-1.75 0-2.62.08a.3.3 0 0 1 -.18 0 2 2 0 0 0 -1.37-.36c-.06 0-.12-.1-.18-.15s.13-.13.19-.13c.74 0 1.48.1 2.22.1h1.94v-1.88a1.53 1.53 0 0 0 -.73-.13 14.2 14.2 0 0 1 -1.44-.19c-.18 0-.18-.16-.05-.24a4.51 4.51 0 0 1 .87-.46c.38-.13.39-.1.1-.43a2.52 2.52 0 0 1 -.3-.35.61.61 0 0 1 .13-.82 3.24 3.24 0 0 1 .85-.27.69.69 0 0 1 .57.33v-.73a.55.55 0 0 1 0-.77v-.23h-1.07l-.3.3a.53.53 0 0 1 -.14.12.56.56 0 0 1 -.74-.1.29.29 0 0 1 -.08-.32zm-10.63 3.67v.33a1.09 1.09 0 0 1 0 .18c-.06.2.15.53-.18.59-.07 0-.26-.36-.31-.58a1.23 1.23 0 0 1 0-.63c0-.13.16-.32.26-.33.27.03.24.26.23.44zm2.19 3.17c-.24 0-.47-.07-.71-.12s-.53-.06-.8-.08c.26-.09.52-.18.78-.25a2.55 2.55 0 0 1 .39 0 2.15 2.15 0 0 1 .43 0c.1 0 .18.14.26.21-.11.1-.23.24-.35.24zm2.87-2.32a1.39 1.39 0 0 1 -1.25-.52.27.27 0 0 1 0-.23.23.23 0 0 1 .22-.07c.33.2.65.42 1 .63l.24.11zm3.28 1.48a9.76 9.76 0 0 1 -1.07-.13l1.13-.09 1 .16c-.34 0-.7.06-1.06.06zm3.73-3.33c-.14.57-.18.6-.82.6h-.54-.9l-.17-.06a.4.4 0 0 1 .2-.09h1.46a.33.33 0 0 0 .23-.21.32.32 0 0 0 -.15-.27 3.4 3.4 0 0 0 -.88-.2 4.33 4.33 0 0 1 -2-.34c-.17-.1-.63 0-.67.06-.12.32.27.31.44.43a1.84 1.84 0 0 0 .51.19c.23.07.29.14.12.37-.34.43-.29.5.22.57s.83 0 1 .22.51.56.94.57c0 0 .08.09.07.14a.17.17 0 0 1 -.12.1c-.54-.07-1.08-.12-1.61-.22-.83-.14-1.67-.28-2.48-.49a6.79 6.79 0 0 1 -1.51-.6 1.13 1.13 0 0 1 -.6-1.14.24.24 0 0 1 .14-.19.31.31 0 0 1 .24.08.76.76 0 0 1 .13.23c.35.86.43.92 1.31.93.26 0 .78.14.28-.4 0 0 .16-.15.16-.23a.55.55 0 0 0 -.1-.37.33.33 0 0 0 -.32 0 .59.59 0 0 0 -.19.29c0 .11 0 .34-.24.23s-.38-.13-.26-.38.21-.62-.17-.86c-.09-.06-.08-.28-.14-.41s-.14-.25-.22-.37a4.51 4.51 0 0 1 .53-.07c.21 0 .2.11.16.29s.17.33.33.27a2.61 2.61 0 0 1 1.49-.08c.3.07.67-.25.74.35a.67.67 0 0 0 .48.06 6.45 6.45 0 0 0 1.17-.67.73.73 0 0 1 .9-.09c1.14.52 1.15.51.84 1.74z" fill="#010101"/><path d="m170 44.32h-.18c-.28 0-.28.16-.15.36s.16.26.25.38a1.56 1.56 0 0 0 .55.4v-1.21a.61.61 0 0 1 -.47.07z" fill="#010101"/><path d="m157.55 54.35a.64.64 0 0 0 .39-.16c.14-.1.1-.35-.05-.35a1.53 1.53 0 0 1 -1.07-.34c-.11-.1-.35 0-.48-.07s-.35 0-.49 0a.16.16 0 0 0 -.11.07.2.2 0 0 0 0 .28.92.92 0 0 0 .3.18c.52.17 1.01.3 1.51.39z" fill="#010101"/><path d="m158.27 46.72a10 10 0 0 0 .75.7s.17 0 .22-.08a.27.27 0 0 0 0-.23c-.27-.22-.54-.42-.86-.65-.05.14-.13.25-.11.26z" fill="#010101"/><path d="m159.13 43.46c-.13.07-.21.24-.31.37.1.07.23.22.31.2s.26-.19.45-.34c-.21-.11-.38-.26-.45-.23z" fill="#010101"/><path d="m170.4 55.71-.47-.1-.29.15a1.42 1.42 0 0 0 .25.24.67.67 0 0 0 .33.15l.26.05v-.47z" fill="#010101"/><path d="m156.33 55.78c-.41.06-.82.15-1.22.25-.13 0-.21.25-.31.38.18.11.34.21.52.3s.12 0 .16-.06a2 2 0 0 1 1.82-.11 1.93 1.93 0 0 0 .72 0 .31.31 0 0 0 .2-.23c0-.09-.11-.28-.14-.27-.61.17-1.08-.48-1.75-.26z" fill="#010101"/><path d="m158 50.3a.22.22 0 0 0 .18-.14c0-.1 0-.28-.08-.3-.45-.17-.91-.3-1.4-.46-.1.08-.28.15-.29.25a.38.38 0 0 0 .2.32 14 14 0 0 0 1.39.33z" fill="#010101"/><path d="m166.27 51.48a6.09 6.09 0 0 1 1.34.18l1.18.21 1-.15s.09-.1.09-.15a.16.16 0 0 0 -.1-.11c-.38-.07-.76-.16-1.15-.2-.78-.07-1.57-.09-2.34-.17s-1.36-.22-2.05-.29a12.16 12.16 0 0 0 -1.35 0s-.12.1-.11.13.08.15.13.15a27.6 27.6 0 0 0 3.36.4z" fill="#010101"/><path d="m159.77 50.9a.4.4 0 0 0 .44-.35.39.39 0 0 0 -.15-.34 1.79 1.79 0 0 0 -.56-.07 1.86 1.86 0 0 0 -.41.08.24.24 0 0 0 -.06.2 2.47 2.47 0 0 0 .65.46z" fill="#010101"/><path d="m170.2 53.67c-1.58-.07-3.16-.16-4.74-.19a22.14 22.14 0 0 1 -4.29-.66c-.25 0-.25-.12-.08-.37a.27.27 0 0 0 .06-.17c-.06-.55.31-.51.64-.45.8.15 1.59.35 2.39.5a1.38 1.38 0 0 1 1 .43s0 0 .05.05a.37.37 0 0 0 .52 0c.45-.44 1-.26 1.46-.19a7.85 7.85 0 0 0 1.08.08c.07 0 .2-.15.2-.23a.32.32 0 0 0 -.17-.26 3.31 3.31 0 0 0 -.55 0l-4.15-.39h-.18c-.76-.19-1.51-.41-2.28-.56a8.84 8.84 0 0 0 -1.45-.1.72.72 0 0 0 -.4.17c-.14.09-.24.31-.36.32a.91.91 0 0 1 -.49-.22c-.12-.08-.21-.22-.34-.3-.37-.26-.46-.22-.8.22-.05.07-.24.13-.28.1a2.92 2.92 0 0 0 -2.07-.48 1.15 1.15 0 0 1 -1-.29v2.85h.03a.63.63 0 0 0 .42-.12c.27-.24.53-.17.85-.12a14.14 14.14 0 0 0 1.72.07h1.1c.36 0 .66 0 .73.5 0 .09.23.25.29.22.38-.15.58-.09.61.35a.26.26 0 0 0 .15.19c.67.26 1.34.52 2 .74a6.22 6.22 0 0 0 1.06.21 5.16 5.16 0 0 0 1.52.13 2.57 2.57 0 0 1 1.74.27 1 1 0 0 0 1.11 0 .93.93 0 0 1 .58-.18 1.24 1.24 0 0 0 1.2-.5.46.46 0 0 1 .3-.19h1.1v-1.44a1.34 1.34 0 0 1 -.28.01zm-14-2c-.09.14-.26.26-.3.41a.57.57 0 0 1 -.72.43.77.77 0 0 1 -.87-.42c0-.06 0-.26.1-.27.55-.13 1.11-.23 1.67-.32-.01.01.1.17.08.19zm3.27.68a9.35 9.35 0 0 1 -2.69.15s-.11-.1-.1-.13.09-.18.14-.18h2.62c.06 0 .12.06.19.09zm5.44 2.73a4.41 4.41 0 0 1 -.47 0l-1.94-.29a.3.3 0 0 1 -.16-.08 2.43 2.43 0 0 1 -.2-.25h.24a2.76 2.76 0 0 0 1.07 0c.61-.26 1 0 1.52.28.07 0 .11.14.17.2a1.09 1.09 0 0 1 -.27.16z" fill="#010101"/><path d="m154.36 56.41c0-.13-.05-.34-.13-.37l-.31-.07v.55h.16c.09.05.28-.06.28-.11z" fill="#010101"/><path d="m170.48 60.07a7.64 7.64 0 0 0 -2.21-.77 9.56 9.56 0 0 1 -1.73-.52c-1.32-.53-2.61-1.13-3.92-1.66-1-.43-2.1-.8-3.15-1.19a.6.6 0 0 0 -.35 0c-.16 0-.37.11-.23.37s0 .43-.23.57a1.7 1.7 0 0 1 -1.56.2 1.32 1.32 0 0 0 -.44-.08.23.23 0 0 0 -.19.14c0 .05.06.15.12.2s.11 0 .17 0l.28.12c-.09.07-.18.18-.28.2-.44.09-.89.14-1.33.21s-.48 0-.32-.42a.37.37 0 0 0 -.34-.46c-.27 0-.55 0-.82 0v1.92 1.67c.61.14 1.2.33 1.81.42.86.13 1.43.76 2.16 1.1l.38.16h6.47l-.34-.09-.77-.16.79-.15c.39.06.75.09 1.09.16.07 0 .12.15.17.24h1.2l1.4-.58a7.21 7.21 0 0 1 1.92.58h.28zm-3.48 1.39c-.12.25-.36.3-.5.1s-.46-.25-.73-.25h-1a8.23 8.23 0 0 1 -2.94-.41 13.14 13.14 0 0 1 -2.22-.74c-.67-.28-1.31-.64-1.95-1l-.64-.34a3.59 3.59 0 0 1 .57-.44 1.32 1.32 0 0 1 .67-.15 2.93 2.93 0 0 1 .88.23c1.45.59 2.89 1.21 4.35 1.79a15.41 15.41 0 0 0 1.64.48s.17-.07.19-.14a.21.21 0 0 0 -.11-.19c-1.13-.44-2.27-.86-3.39-1.3a11.07 11.07 0 0 1 -1.39-.66c-.39-.23-.4-.78-.84-1-.21-.12-.12-.59.07-.74s.32.08.46.15a2.21 2.21 0 0 1 .45.3c.1.1.22.3.18.38-.27.54.11.6.47.74s.5.46.9.22c.08 0 .28.06.4.13a15.81 15.81 0 0 0 3.61 1.38c.26.08.38.12.2.41-.4.62-.37.65.36.68a.6.6 0 0 1 .19 0l.25.08a1.92 1.92 0 0 1 -.13.29zm2.44-1-.79-.19-.87-.2c-.61-.15-1.24-.25-1.83-.45s-1.45-.57-2.16-.89c-.55-.25-1.08-.55-1.61-.84a.29.29 0 0 1 -.08-.23c0-.05.15-.11.21-.09a6.92 6.92 0 0 1 .76.28l3.16 1.37a11.32 11.32 0 0 0 1.42.49c.6.16 1.22.28 1.83.43.07 0 .11.12.17.19z" fill="#010101"/><path d="m154.17 62.05h-.25v.17h1.14a.48.48 0 0 0 -.25-.14 3.39 3.39 0 0 0 -.64-.03z" fill="#010101"/><path d="m168.72 57.28c-.38-.06-.74-.24-1.12-.33-.1 0-.24.1-.37.15.08.08.14.21.23.24.54.2 1.09.35 1.62.56s.81.39 1.21.59h.08.11v-.68a5.05 5.05 0 0 0 -1.76-.53z" fill="#010101"/><path d="m166.26 56.72c.11 0 .23-.1.35-.15-.09-.1-.17-.28-.28-.3a4.12 4.12 0 0 0 -.7-.05 3.59 3.59 0 0 1 -1.69-.23 2.53 2.53 0 0 0 -1.06-.08c-.06 0-.12.12-.18.18a.82.82 0 0 0 .2.12 5.71 5.71 0 0 0 2.2.39c.39 0 .77.1 1.16.12z" fill="#010101"/><path d="m113.86 42.23h20.28v19.93h-20.28z" fill="#fcad32"/><path d="m123.93 57.11v5a10.09 10.09 0 0 0 10.07-10.04h-10.07z" fill="#fff"/><path d="m113.84 57.11v5a10.09 10.09 0 0 0 10.09-10.09h-10.09z" fill="#fff"/></svg>