<svg viewBox="0 0 288 123" xmlns="http://www.w3.org/2000/svg"><path d="m0 0h288v123h-288z" fill="#221f1f"/><g fill="none" stroke="#f7d4cb" stroke-miterlimit="10" stroke-width=".51"><path d="m90.21 50.7v28.89a1.26 1.26 0 0 1 -1.21 1.26h-9.8a1.27 1.27 0 0 1 -1.27-1.26v-28.89h-3.78v28.89a1.27 1.27 0 0 1 -1.27 1.26h-13.73a1.29 1.29 0 0 1 -1.29-1.42v-36a1.27 1.27 0 0 1 1.26-1.26h45.46c3.56 0 5.87 2.56 5.77 6.34v31.1a1.26 1.26 0 0 1 -1.26 1.26h-13.79a1.27 1.27 0 0 1 -1.3-1.28v-28.89zm120.18 21.63v-28.92a1.27 1.27 0 0 0 -1.26-1.26h-13.8a1.28 1.28 0 0 0 -1.33 1.42v12.6a1.54 1.54 0 0 0 0 .37l3.85 20.08c.47 2.46 1.52 4.23 3.91 4.23h21c2.4 0 3.45-1.77 3.92-4.23l3.85-20.08a1.54 1.54 0 0 0 0-.37v-12.6a1.38 1.38 0 0 0 -1.36-1.42h-13.73a1.27 1.27 0 0 0 -1.26 1.26v28.92zm-59.85-23.84v26c0 3.82-2.27 6.34-5.87 6.34h-24.78c-3.6 0-5.87-2.52-5.87-6.34v-26c0-3.82 2.27-6.34 5.87-6.34h24.78c3.6 0 5.87 2.56 5.87 6.34zm40.12 0v26c0 3.82-2.27 6.34-5.87 6.34h-24.79c-3.6 0-5.87-2.52-5.87-6.34v-26c0-3.82 2.27-6.34 5.87-6.34h24.78c3.61 0 5.88 2.56 5.88 6.34zm-20.14 2.21v21.63h3.79v-21.63zm-36.33 21.63v-21.63h-3.79v21.63z"/><path d="m214.18 50.7h26.7"/><path d="m194.04 50.7h16.35"/><path d="m154.14 50.7h36.52"/><path d="m114.02 50.7h36.52"/><path d="m42.43 50.7h67.92"/><path d="m214.18 56.11h31.84"/><path d="m194.04 56.11h16.35"/><path d="m174.31 56.11h16.35"/><path d="m154.14 56.11h16.38"/><path d="m134.19 56.11h16.35"/><path d="m114.02 56.11h16.38"/><path d="m94.03 56.11h16.33"/><path d="m77.93 56.11h12.28"/><path d="m57.86 56.11h16.29"/><path d="m214.18 61.52h15.43"/><path d="m195.02 61.52h15.37"/><path d="m174.31 61.52h16.35"/><path d="m154.14 61.52h16.38"/><path d="m134.19 61.52h16.35"/><path d="m114.02 61.52h16.38"/><path d="m94.03 61.52h16.32"/><path d="m77.93 61.52h12.28"/><path d="m57.86 61.52h16.29"/><path d="m214.18 66.92h14.36"/><path d="m196.06 66.92h14.33"/><path d="m174.31 66.92h16.35"/><path d="m154.14 66.92h16.38"/><path d="m134.19 66.92h16.35"/><path d="m114.02 66.92h16.38"/><path d="m94.03 66.92h16.32"/><path d="m77.93 66.92h12.28"/><path d="m37.29 66.92h36.75"/><path d="m197.1 72.33h40.71"/><path d="m154.14 72.33h36.52"/><path d="m114.02 72.33h36.52"/><path d="m94.03 72.33h16.32"/><path d="m77.93 72.33h12.28"/><path d="m47.57 72.33h26.58"/></g></svg>