<svg viewBox="0 0 288 123" xmlns="http://www.w3.org/2000/svg" xmlns:xlink="http://www.w3.org/1999/xlink"><clipPath id="a"><path d="m110.22 48.28v31a1.28 1.28 0 0 1 -1.31 1.41h-13.91a1.11 1.11 0 0 1 -1.12-1.1v-28.65a.48.48 0 0 0 -.48-.48h-2.86a.48.48 0 0 0 -.49.48v28.6a1.11 1.11 0 0 1 -1.12 1.1h-10.05a1.11 1.11 0 0 1 -1.12-1.1v-28.6a.47.47 0 0 0 -.48-.48h-2.86a.47.47 0 0 0 -.48.48v28.6a1.12 1.12 0 0 1 -1.13 1.1h-13.89a1.29 1.29 0 0 1 -1.31-1.41v-35.89a1.29 1.29 0 0 1 1.31-1.41h45.42c3.59 0 5.88 2.54 5.88 6.35zm112.35 32.36c2.42 0 3.46-1.76 3.92-4.23l3.84-20.1a2.33 2.33 0 0 0 0-.37v-12.6a1.29 1.29 0 0 0 -1.31-1.41h-13.89a1.11 1.11 0 0 0 -1.13 1.07v28.6a.49.49 0 0 1 -.49.49h-2.85a.49.49 0 0 1 -.49-.49v-28.6a1.11 1.11 0 0 0 -1.12-1.1h-13.92a1.29 1.29 0 0 0 -1.31 1.41v12.6a1.55 1.55 0 0 0 0 .37l3.84 20.1c.46 2.47 1.5 4.23 3.92 4.23zm-72.22-32.36v26c0 3.81-2.29 6.35-5.88 6.35h-24.8c-3.58 0-5.87-2.54-5.87-6.35v-26c0-3.81 2.29-6.35 5.87-6.35h24.8c3.59 0 5.88 2.54 5.88 6.35zm-16.35 2.66a.48.48 0 0 0 -.49-.48h-2.85a.48.48 0 0 0 -.49.48v20.69a.49.49 0 0 0 .49.49h2.85a.49.49 0 0 0 .49-.49zm56.49-2.66v26c0 3.81-2.28 6.35-5.87 6.35h-24.8c-3.59 0-5.88-2.54-5.88-6.35v-26c0-3.81 2.29-6.35 5.88-6.35h24.8c3.58 0 5.86 2.54 5.86 6.35zm-16.36 2.66a.48.48 0 0 0 -.48-.48h-2.86a.48.48 0 0 0 -.49.48v20.69a.49.49 0 0 0 .49.49h2.86a.49.49 0 0 0 .48-.49z"/></clipPath><path d="m0 0h288v123h-288z" fill="#fff"/><g clip-path="url(#a)"><path d="m45.51 41.93h196.1v7.09h-196.1z" fill="#e91d25"/><path d="m45.51 49.02h196.1v5.56h-196.1z" fill="#f05723"/><path d="m45.51 54.58h196.1v6.32h-196.1z" fill="#f6c812"/><path d="m45.51 60.9h196.1v6.32h-196.1z" fill="#0db04b"/><path d="m45.51 67.23h196.1v6.32h-196.1z" fill="#0379ba"/><path d="m45.51 73.55h196.1v7.09h-196.1z" fill="#593392"/></g></svg>