<svg viewBox="0 0 288 123" xmlns="http://www.w3.org/2000/svg"><path d="m-2.37-1.77h292.74v126.55h-292.74z" fill="#211e1f"/><circle cx="71.6" cy="41.07" fill="#3ea66f" r="3.68"/><path d="m104.35 42.15h-45.45a1.27 1.27 0 0 0 -1.27 1.26v36a1.3 1.3 0 0 0 1.3 1.42h13.73a1.27 1.27 0 0 0 1.26-1.26v-28.39a.48.48 0 0 1 .47-.48h2.85a.48.48 0 0 1 .47.48v28.41a1.27 1.27 0 0 0 1.29 1.26h9.76a1.27 1.27 0 0 0 1.24-1.26v-28.41a.48.48 0 0 1 .47-.48h2.87a.49.49 0 0 1 .48.48v28.41a1.27 1.27 0 0 0 1.26 1.26h13.8a1.27 1.27 0 0 0 1.26-1.26v-31.1c.08-3.78-2.22-6.34-5.79-6.34z" fill="#eaeceb"/><circle cx="215.23" cy="43.48" fill="#faad40" r="8.71"/><g fill="#eaeceb"><path d="m229 42.15h-13.78a1.27 1.27 0 0 0 -1.22 1.26v28.41a.48.48 0 0 1 -.47.47h-2.84a.49.49 0 0 1 -.48-.47v-28.41a1.26 1.26 0 0 0 -1.26-1.26h-13.84a1.28 1.28 0 0 0 -1.3 1.42v12.59a1.58 1.58 0 0 0 0 .38l3.86 20.08c.47 2.46 1.51 4.23 3.91 4.23h21c2.4 0 3.44-1.77 3.91-4.23l3.86-20.08a1.58 1.58 0 0 0 0-.38v-12.59a1.39 1.39 0 0 0 -1.35-1.42z"/><path d="m144.44 42.15h-24.78c-3.6 0-5.87 2.52-5.87 6.34v26c0 3.82 2.27 6.35 5.87 6.35h24.78c3.6 0 5.87-2.53 5.87-6.35v-26c0-3.78-2.31-6.34-5.87-6.34zm-10.44 29.7a.48.48 0 0 1 -.47.48h-2.84a.49.49 0 0 1 -.48-.48v-20.67a.49.49 0 0 1 .48-.48h2.84a.48.48 0 0 1 .47.48z"/><path d="m184.56 42.15h-24.78c-3.6 0-5.87 2.52-5.87 6.34v26c0 3.82 2.27 6.35 5.87 6.35h24.78c3.6 0 5.88-2.53 5.88-6.35v-26c0-3.78-2.28-6.34-5.88-6.34zm-10.48 29.7a.48.48 0 0 1 -.47.48h-2.84a.48.48 0 0 1 -.47-.48v-20.67a.48.48 0 0 1 .47-.48h2.84a.48.48 0 0 1 .47.48z"/></g><path d="m48.73 67.5v-16.7l16.7 16.7z" fill="#faad40"/><path d="m94 63.71a6.09 6.09 0 0 0 -4 1.53v9.18a6.12 6.12 0 1 0 4-10.71z" fill="#e44c35"/><path d="m130.17 32.07h11.63v24.19h-11.63z" fill="#6651a1"/><path d="m223.19 51.64h11.25v11.25h-11.25z" fill="#e44c35"/><path d="m174.08 83.37v-14.1l-14.1 14.1z" fill="#3ea66f"/></svg>