<svg viewBox="0 0 288 123" xmlns="http://www.w3.org/2000/svg"><path d="m0 0h288v123h-288z" fill="#f2f1f2"/><path d="m104.35 42.15h-45.45a1.27 1.27 0 0 0 -1.27 1.26v36a1.3 1.3 0 0 0 1.3 1.42h13.73a1.27 1.27 0 0 0 1.26-1.26v-28.39a.49.49 0 0 1 .48-.48h2.84a.49.49 0 0 1 .47.48v28.41a1.27 1.27 0 0 0 1.29 1.26h9.76a1.27 1.27 0 0 0 1.24-1.26v-28.41a.49.49 0 0 1 .47-.48h2.88a.49.49 0 0 1 .47.48v28.41a1.27 1.27 0 0 0 1.26 1.26h13.8a1.27 1.27 0 0 0 1.26-1.26v-31.1c.08-3.78-2.22-6.34-5.79-6.34z"/><path d="m229 42.15h-13.8a1.27 1.27 0 0 0 -1.2 1.26v28.41a.49.49 0 0 1 -.47.48h-2.84a.5.5 0 0 1 -.48-.48v-28.41a1.26 1.26 0 0 0 -1.26-1.26h-13.84a1.28 1.28 0 0 0 -1.3 1.42v12.6a1.54 1.54 0 0 0 0 .37l3.86 20.08c.47 2.46 1.51 4.23 3.91 4.23h21c2.4 0 3.44-1.77 3.91-4.23l3.86-20.08a1.54 1.54 0 0 0 0-.37v-12.6a1.39 1.39 0 0 0 -1.35-1.42z"/><path d="m144.44 42.15h-24.78c-3.6 0-5.87 2.52-5.87 6.34v26c0 3.82 2.27 6.34 5.87 6.34h24.78c3.6 0 5.87-2.52 5.87-6.34v-26c0-3.78-2.31-6.34-5.87-6.34z"/><path d="m184.56 42.15h-24.78c-3.6 0-5.87 2.52-5.87 6.34v26c0 3.82 2.27 6.34 5.87 6.34h24.78c3.6 0 5.87-2.52 5.87-6.34v-26c0-3.78-2.27-6.34-5.87-6.34z"/><path d="m132.05 53.59c9.08 0 16.44 7.91 16.44 7.91s-7.36 7.91-16.44 7.91-16.43-7.91-16.43-7.91 7.38-7.91 16.43-7.91z" fill="#fff"/><circle cx="132.05" cy="61.5" fill="#ee444e" r="5.85"/><path d="m172.17 53.59c9.08 0 16.44 7.91 16.44 7.91s-7.36 7.91-16.44 7.91-16.43-7.91-16.43-7.91 7.36-7.91 16.43-7.91z" fill="#fff"/><circle cx="172.17" cy="61.5" fill="#ee444e" r="5.85"/></svg>